<svg width="25" height="25" viewBox="0 0 25 25" fill="none" xmlns="http://www.w3.org/2000/svg">
<path d="M24 12.5755C24 17.9446 20.3701 22.4555 15.4527 23.7654V17.2089H17.363H18.2222L18.3516 16.3595L18.9054 12.7235L19.0806 11.5729H17.9168H15.4527V10.2148C15.4527 9.86168 15.5406 9.63511 15.6478 9.51014C15.7308 9.41348 15.933 9.24907 16.4879 9.24907H18.0681H19.0681V8.24907V5.15646V4.31309L18.2368 4.17079L18.0681 5.15646C18.2368 4.17079 18.2367 4.17078 18.2366 4.17076L18.2364 4.17073L18.2359 4.17064L18.2345 4.17041L18.2302 4.16967L18.2153 4.16719L18.1621 4.15852C18.1165 4.15121 18.0511 4.141 17.9689 4.12887C17.8047 4.10462 17.5725 4.07253 17.2959 4.04048C16.7471 3.97689 16.005 3.91121 15.2678 3.91121C13.6371 3.91121 12.1789 4.41204 11.1277 5.47053C10.0763 6.52929 9.54731 8.02998 9.54731 9.80481V11.5755H7.37199H6.37199V12.5755V16.2114V17.2114H7.37199H9.54731V23.7669C4.62937 22.453 1 17.9429 1 12.5755C1 6.1772 6.15476 1 12.5 1C18.8452 1 24 6.1772 24 12.5755Z" fill="#0F1221" stroke="white" stroke-width="2"/>
</svg>
