<svg width="25" height="25" viewBox="0 0 25 25" fill="none" xmlns="http://www.w3.org/2000/svg">
<mask id="path-1-inside-1_112_114" fill="white">
<path d="M15.24 9.34421C14.7115 9.34421 14.3201 9.47752 14.0137 9.64591C13.9646 9.47128 13.8033 9.34343 13.613 9.38163H11.2867C11.0567 9.34343 10.8704 9.52975 10.9414 9.77142V18.3469C10.8704 18.5652 11.0567 18.7523 11.2867 18.7367H13.613C13.843 18.7523 14.0293 18.5652 14.0293 18.3353L14.0286 13.1525C14.0278 13.1502 14.0192 12.9023 14.1759 12.7315C14.3014 12.5959 14.5174 12.5265 14.8159 12.5265C15.3133 12.5265 15.5347 12.73 15.6174 13.1853V18.3353C15.5355 18.5652 15.7218 18.7523 15.9518 18.7367H18.4036C18.6336 18.7523 18.8199 18.5652 18.7373 18.3353V13.0122C18.8192 10.3054 16.8912 9.34421 15.24 9.34421ZM17.9866 17.9572H16.3681V13.1853C16.3681 12.2646 15.7733 11.6939 14.8167 11.6939C14.2757 11.6939 13.8547 11.8529 13.5647 12.1663C13.1616 12.6029 13.1928 13.1564 13.2794 13.2796V17.9572H11.703V10.1768H13.1967V10.4388C13.1961 10.5168 13.2175 10.5934 13.2585 10.6598C13.2995 10.7262 13.3584 10.7797 13.4284 10.8142C13.4984 10.8486 13.5767 10.8626 13.6544 10.8545C13.732 10.8464 13.8057 10.8166 13.8672 10.7685L13.9763 10.6843C14.2921 10.4356 14.6187 10.1776 15.2408 10.1776C15.8848 10.1776 17.9873 10.3826 17.9873 13.013V17.9572H17.9866ZM8.60181 5.45715C7.7271 5.45715 7.01611 6.16814 7.01611 7.04285C7.01611 7.91755 7.7271 8.62854 8.60181 8.62854C9.47651 8.62854 10.1875 7.91755 10.1875 7.04285C10.1875 6.16814 9.47651 5.45715 8.60181 5.45715ZM8.60181 7.79593C8.18706 7.79593 7.84872 7.45759 7.84872 7.04285C7.84872 6.6281 8.18706 6.28976 8.60181 6.28976C9.01655 6.28976 9.35489 6.6281 9.35489 7.04285C9.35489 7.45759 9.01655 7.79593 8.60181 7.79593ZM9.71507 9.34343H7.40123C7.17125 9.34343 6.98493 9.52975 7.04262 9.77142V18.3469C6.98493 18.5652 7.17125 18.7523 7.40123 18.7367H9.71507C9.94505 18.7523 10.1314 18.5652 10.1314 18.3353V9.75973C10.1314 9.64932 10.0875 9.54343 10.0094 9.46536C9.93136 9.38729 9.82548 9.34343 9.71507 9.34343ZM9.3814 17.9572H7.81754V10.1768H9.3814V17.9572Z"/>
</mask>
<path d="M15.24 9.34421C14.7115 9.34421 14.3201 9.47752 14.0137 9.64591C13.9646 9.47128 13.8033 9.34343 13.613 9.38163H11.2867C11.0567 9.34343 10.8704 9.52975 10.9414 9.77142V18.3469C10.8704 18.5652 11.0567 18.7523 11.2867 18.7367H13.613C13.843 18.7523 14.0293 18.5652 14.0293 18.3353L14.0286 13.1525C14.0278 13.1502 14.0192 12.9023 14.1759 12.7315C14.3014 12.5959 14.5174 12.5265 14.8159 12.5265C15.3133 12.5265 15.5347 12.73 15.6174 13.1853V18.3353C15.5355 18.5652 15.7218 18.7523 15.9518 18.7367H18.4036C18.6336 18.7523 18.8199 18.5652 18.7373 18.3353V13.0122C18.8192 10.3054 16.8912 9.34421 15.24 9.34421ZM17.9866 17.9572H16.3681V13.1853C16.3681 12.2646 15.7733 11.6939 14.8167 11.6939C14.2757 11.6939 13.8547 11.8529 13.5647 12.1663C13.1616 12.6029 13.1928 13.1564 13.2794 13.2796V17.9572H11.703V10.1768H13.1967V10.4388C13.1961 10.5168 13.2175 10.5934 13.2585 10.6598C13.2995 10.7262 13.3584 10.7797 13.4284 10.8142C13.4984 10.8486 13.5767 10.8626 13.6544 10.8545C13.732 10.8464 13.8057 10.8166 13.8672 10.7685L13.9763 10.6843C14.2921 10.4356 14.6187 10.1776 15.2408 10.1776C15.8848 10.1776 17.9873 10.3826 17.9873 13.013V17.9572H17.9866ZM8.60181 5.45715C7.7271 5.45715 7.01611 6.16814 7.01611 7.04285C7.01611 7.91755 7.7271 8.62854 8.60181 8.62854C9.47651 8.62854 10.1875 7.91755 10.1875 7.04285C10.1875 6.16814 9.47651 5.45715 8.60181 5.45715ZM8.60181 7.79593C8.18706 7.79593 7.84872 7.45759 7.84872 7.04285C7.84872 6.6281 8.18706 6.28976 8.60181 6.28976C9.01655 6.28976 9.35489 6.6281 9.35489 7.04285C9.35489 7.45759 9.01655 7.79593 8.60181 7.79593ZM9.71507 9.34343H7.40123C7.17125 9.34343 6.98493 9.52975 7.04262 9.77142V18.3469C6.98493 18.5652 7.17125 18.7523 7.40123 18.7367H9.71507C9.94505 18.7523 10.1314 18.5652 10.1314 18.3353V9.75973C10.1314 9.64932 10.0875 9.54343 10.0094 9.46536C9.93136 9.38729 9.82548 9.34343 9.71507 9.34343ZM9.3814 17.9572H7.81754V10.1768H9.3814V17.9572Z" fill="white"/>
<path d="M14.0137 9.64591L12.0884 10.1874L12.7702 12.6115L14.9771 11.3986L14.0137 9.64591ZM13.613 9.38163V11.3816H13.8119L14.0068 11.3425L13.613 9.38163ZM11.2867 9.38163L10.959 11.3546L11.1218 11.3816H11.2867V9.38163ZM10.9414 9.77142H12.9414V9.48394L12.8604 9.2081L10.9414 9.77142ZM10.9414 18.3469L12.8434 18.9651L12.9414 18.6638V18.3469H10.9414ZM11.2867 18.7367V16.7367H11.219L11.1514 16.7413L11.2867 18.7367ZM13.613 18.7367L13.7483 16.7413L13.6808 16.7367H13.613V18.7367ZM14.0293 18.3353H16.0293V18.335L14.0293 18.3353ZM14.0286 13.1525L16.0286 13.1522L16.0285 12.8278L15.9259 12.5201L14.0286 13.1525ZM14.1759 12.7315L12.7079 11.3732L12.7024 11.3792L14.1759 12.7315ZM15.6174 13.1853H17.6174V13.0052L17.5852 12.8281L15.6174 13.1853ZM15.6174 18.3353L17.5016 19.0059L17.6174 18.6806V18.3353H15.6174ZM15.9518 18.7367V16.7367H15.8841L15.8165 16.7413L15.9518 18.7367ZM18.4036 18.7367L18.5389 16.7413L18.4714 16.7367H18.4036V18.7367ZM18.7373 18.3353H16.7373V18.6837L16.8551 19.0116L18.7373 18.3353ZM18.7373 13.0122L16.7382 12.9517L16.7373 12.982V13.0122H18.7373ZM16.3681 17.9572H14.3681V19.9572H16.3681V17.9572ZM13.5647 12.1663L12.0968 10.808L12.0952 10.8097L13.5647 12.1663ZM13.2794 13.2796H15.2794V12.6473L14.9159 12.1299L13.2794 13.2796ZM13.2794 17.9572V19.9572H15.2794V17.9572H13.2794ZM11.703 17.9572H9.70303V19.9572H11.703V17.9572ZM11.703 10.1768V8.17681H9.70303V10.1768H11.703ZM13.1967 10.1768H15.1967V8.17681H13.1967V10.1768ZM13.1967 10.4388L15.1967 10.4544L15.1967 10.4466V10.4388H13.1967ZM13.8672 10.7685L12.6456 9.18497L12.6398 9.18942L12.634 9.19393L13.8672 10.7685ZM13.9763 10.6843L15.1979 12.2679L15.2059 12.2617L15.2138 12.2555L13.9763 10.6843ZM17.9873 17.9572V19.9572H19.9873V17.9572H17.9873ZM9.71507 9.34343V11.3434V9.34343ZM7.04262 9.77142H9.04262V9.53602L8.98796 9.30705L7.04262 9.77142ZM7.04262 18.3469L8.97623 18.858L9.04262 18.6068V18.3469H7.04262ZM7.40123 18.7367V16.7367H7.33351L7.26595 16.7413L7.40123 18.7367ZM9.71507 18.7367L9.85035 16.7413L9.78278 16.7367H9.71507V18.7367ZM9.3814 17.9572V19.9572H11.3814V17.9572H9.3814ZM7.81754 17.9572H5.81754V19.9572H7.81754V17.9572ZM7.81754 10.1768V8.17681H5.81754V10.1768H7.81754ZM9.3814 10.1768H11.3814V8.17681H9.3814V10.1768ZM15.24 7.34421C14.3439 7.34421 13.6238 7.57806 13.0504 7.89319L14.9771 11.3986C15.0076 11.3818 15.0337 11.3712 15.063 11.3633C15.0921 11.3555 15.1472 11.3442 15.24 11.3442V7.34421ZM15.939 9.10442C15.6677 8.13953 14.6412 7.13521 13.2193 7.42077L14.0068 11.3425C12.9653 11.5516 12.2616 10.803 12.0884 10.1874L15.939 9.10442ZM13.613 7.38163H11.2867V11.3816H13.613V7.38163ZM11.6144 7.40866C10.8813 7.28689 10.0861 7.51416 9.53144 8.11518C8.95697 8.73766 8.80227 9.58506 9.02234 10.3348L12.8604 9.2081C13.0095 9.71611 12.9125 10.3495 12.471 10.828C12.0492 11.285 11.4621 11.4382 10.959 11.3546L11.6144 7.40866ZM8.94137 9.77142V18.3469H12.9414V9.77142H8.94137ZM9.0393 17.7288C8.76926 18.5597 8.99909 19.4083 9.53053 19.985C10.0306 20.5275 10.7369 20.7786 11.422 20.7322L11.1514 16.7413C11.6066 16.7105 12.1047 16.8758 12.4719 17.2741C12.8704 17.7066 13.0425 18.3525 12.8434 18.9651L9.0393 17.7288ZM11.2867 20.7367H13.613V16.7367H11.2867V20.7367ZM13.4777 20.7322C14.948 20.8318 16.0293 19.636 16.0293 18.3353H12.0293C12.0293 17.4945 12.738 16.6728 13.7483 16.7413L13.4777 20.7322ZM16.0293 18.335L16.0286 13.1522L12.0286 13.1528L12.0293 18.3356L16.0293 18.335ZM15.9259 12.5201C15.9654 12.6386 15.9846 12.7345 15.9908 12.7658C15.9995 12.8097 16.0049 12.8453 16.0079 12.866C16.0139 12.9076 16.0173 12.9405 16.0188 12.9557C16.0221 12.9886 16.0238 13.0145 16.0245 13.0254C16.0261 13.0509 16.0269 13.0709 16.0272 13.0815C16.028 13.1053 16.0282 13.125 16.0282 13.1399C16.0282 13.1709 16.0274 13.1996 16.0258 13.2266C16.0227 13.2791 16.016 13.3412 16.0015 13.4114C15.9773 13.5279 15.9027 13.8079 15.6494 14.0839L12.7024 11.3792C12.2924 11.8259 12.1437 12.3153 12.0849 12.5989C12.053 12.7528 12.0388 12.888 12.0326 12.993C12.0295 13.0462 12.0282 13.096 12.0282 13.1416C12.0282 13.1638 12.0286 13.1893 12.0295 13.2171C12.0299 13.2297 12.0308 13.2512 12.0324 13.2777C12.0332 13.2892 12.0349 13.3155 12.0382 13.3488C12.0397 13.3641 12.0431 13.3972 12.0492 13.4389C12.0522 13.4596 12.0576 13.4952 12.0663 13.5391C12.0725 13.5705 12.0917 13.6664 12.1312 13.785L15.9259 12.5201ZM15.6439 14.0899C15.4263 14.325 15.1909 14.4348 15.0416 14.4827C14.9676 14.5064 14.9095 14.5169 14.8739 14.5217C14.8381 14.5265 14.8177 14.5265 14.8159 14.5265V10.5265C14.2904 10.5265 13.3895 10.6366 12.7079 11.3732L15.6439 14.0899ZM14.8159 14.5265C14.8108 14.5265 14.7245 14.5268 14.5918 14.489C14.4481 14.4481 14.263 14.3659 14.0831 14.2143C13.9034 14.0628 13.7912 13.8945 13.7264 13.7603C13.6665 13.6364 13.6509 13.5503 13.6495 13.5424L17.5852 12.8281C17.5026 12.3731 17.29 11.6861 16.6612 11.156C16.0305 10.6243 15.3092 10.5265 14.8159 10.5265V14.5265ZM13.6174 13.1853V18.3353H17.6174V13.1853H13.6174ZM13.7332 17.6646C13.4492 18.4623 13.6198 19.3318 14.1698 19.9534C14.6793 20.5292 15.4053 20.7784 16.0871 20.7322L15.8165 16.7413C16.2683 16.7107 16.7862 16.8741 17.1655 17.3028C17.5853 17.7772 17.7037 18.4382 17.5016 19.0059L13.7332 17.6646ZM15.9518 20.7367H18.4036V16.7367H15.9518V20.7367ZM18.2684 20.7322C18.9498 20.7784 19.6766 20.5295 20.1866 19.9523C20.7376 19.3285 20.9061 18.4567 20.6195 17.6589L16.8551 19.0116C16.6511 18.4438 16.7678 17.7805 17.1888 17.3039C17.5688 16.8739 18.0875 16.7107 18.5389 16.7413L18.2684 20.7322ZM20.7373 18.3353V13.0122H16.7373V18.3353H20.7373ZM20.7364 13.0726C20.7934 11.1867 20.1296 9.65962 18.9368 8.64176C17.811 7.68115 16.4154 7.34421 15.24 7.34421V11.3442C15.7159 11.3442 16.1098 11.4879 16.3404 11.6846C16.5038 11.824 16.763 12.131 16.7382 12.9517L20.7364 13.0726ZM17.9866 15.9572H16.3681V19.9572H17.9866V15.9572ZM18.3681 17.9572V13.1853H14.3681V17.9572H18.3681ZM18.3681 13.1853C18.3681 12.2828 18.0656 11.3524 17.3368 10.6521C16.6172 9.96075 15.6909 9.6939 14.8167 9.6939V13.6939C14.8991 13.6939 14.7485 13.7124 14.5655 13.5365C14.4804 13.4548 14.425 13.3632 14.3947 13.2848C14.3658 13.21 14.3681 13.17 14.3681 13.1853H18.3681ZM14.8167 9.6939C13.8759 9.6939 12.8605 9.98266 12.0968 10.808L15.0326 13.5247C14.9975 13.5626 14.9572 13.597 14.914 13.6257C14.8711 13.6543 14.8323 13.6726 14.8028 13.6837C14.7452 13.7055 14.7393 13.6939 14.8167 13.6939V9.6939ZM12.0952 10.8097C11.5837 11.3637 11.3438 11.9976 11.2613 12.539C11.2204 12.8074 11.2135 13.0808 11.244 13.3449C11.2652 13.5279 11.3322 13.9871 11.6429 14.4293L14.9159 12.1299C15.0728 12.3532 15.1396 12.552 15.1656 12.6387C15.1973 12.7442 15.2111 12.8294 15.2175 12.8853C15.2305 12.9973 15.2247 13.0819 15.2156 13.142C15.1966 13.2667 15.1427 13.4055 15.0342 13.523L12.0952 10.8097ZM11.2794 13.2796V17.9572H15.2794V13.2796H11.2794ZM13.2794 15.9572H11.703V19.9572H13.2794V15.9572ZM13.703 17.9572V10.1768H9.70303V17.9572H13.703ZM11.703 12.1768H13.1967V8.17681H11.703V12.1768ZM11.1967 10.1768V10.4388H15.1967V10.1768H11.1967ZM11.1968 10.4231C11.1932 10.8775 11.3179 11.3236 11.5565 11.7102L14.9605 9.60944C15.1171 9.86325 15.199 10.1561 15.1967 10.4544L11.1968 10.4231ZM11.5565 11.7102C11.7951 12.0968 12.138 12.4083 12.5457 12.6088L14.3111 9.0195C14.5788 9.15115 14.8039 9.35563 14.9605 9.60944L11.5565 11.7102ZM12.5457 12.6088C12.9534 12.8093 13.4094 12.8908 13.8613 12.8438L13.4475 8.86524C13.7441 8.83439 14.0435 8.88785 14.3111 9.0195L12.5457 12.6088ZM13.8613 12.8438C14.3132 12.7968 14.7426 12.6232 15.1003 12.3431L12.634 9.19393C12.8689 9.01002 13.1508 8.8961 13.4475 8.86524L13.8613 12.8438ZM15.0888 12.3521L15.1979 12.2679L12.7547 9.10077L12.6456 9.18497L15.0888 12.3521ZM15.2138 12.2555C15.2554 12.2227 15.2836 12.2006 15.3104 12.1801C15.3359 12.1606 15.3527 12.1483 15.3645 12.1401C15.3871 12.1244 15.3827 12.1294 15.3601 12.1403C15.3487 12.1458 15.3345 12.1519 15.3179 12.1577C15.3014 12.1636 15.2852 12.1682 15.2701 12.1717C15.2383 12.1789 15.2256 12.1776 15.2408 12.1776V8.17759C13.9007 8.17759 13.1121 8.81911 12.7388 9.11317L15.2138 12.2555ZM15.2408 12.1776C15.3021 12.1776 15.4114 12.183 15.5312 12.2082C15.653 12.2337 15.7398 12.2699 15.7931 12.3034C15.8331 12.3284 15.858 12.3525 15.8834 12.4002C15.9115 12.453 15.9873 12.6255 15.9873 13.013H19.9873C19.9873 11.0591 19.1485 9.68598 17.918 8.91444C16.8432 8.24053 15.7094 8.17759 15.2408 8.17759V12.1776ZM15.9873 13.013V17.9572H19.9873V13.013H15.9873ZM17.9873 15.9572H17.9866V19.9572H17.9873V15.9572ZM8.60181 3.45715C6.62253 3.45715 5.01611 5.06357 5.01611 7.04285H9.01611C9.01611 7.27271 8.83167 7.45715 8.60181 7.45715V3.45715ZM5.01611 7.04285C5.01611 9.02212 6.62253 10.6285 8.60181 10.6285V6.62854C8.83167 6.62854 9.01611 6.81298 9.01611 7.04285H5.01611ZM8.60181 10.6285C10.5811 10.6285 12.1875 9.02212 12.1875 7.04285H8.1875C8.1875 6.81298 8.37194 6.62854 8.60181 6.62854V10.6285ZM12.1875 7.04285C12.1875 5.06357 10.5811 3.45715 8.60181 3.45715V7.45715C8.37194 7.45715 8.1875 7.27271 8.1875 7.04285H12.1875ZM8.60181 5.79593C9.29163 5.79593 9.84872 6.35302 9.84872 7.04285H5.84872C5.84872 8.56216 7.08249 9.79593 8.60181 9.79593V5.79593ZM9.84872 7.04285C9.84872 7.73267 9.29163 8.28976 8.60181 8.28976V4.28976C7.08249 4.28976 5.84872 5.52353 5.84872 7.04285H9.84872ZM8.60181 8.28976C7.91198 8.28976 7.35489 7.73267 7.35489 7.04285H11.3549C11.3549 5.52353 10.1211 4.28976 8.60181 4.28976V8.28976ZM7.35489 7.04285C7.35489 6.35302 7.91198 5.79593 8.60181 5.79593V9.79593C10.1211 9.79593 11.3549 8.56216 11.3549 7.04285H7.35489ZM9.71507 7.34343H7.40123V11.3434H9.71507V7.34343ZM7.40123 7.34343C6.75224 7.34343 6.09006 7.6073 5.61787 8.1396C5.11851 8.70254 4.9163 9.47765 5.09728 10.2358L8.98796 9.30705C9.11125 9.82352 8.97335 10.3846 8.61023 10.794C8.27428 11.1727 7.82025 11.3434 7.40123 11.3434V7.34343ZM5.04262 9.77142V18.3469H9.04262V9.77142H5.04262ZM5.10901 17.8359C4.62537 19.6659 6.25314 20.8192 7.53652 20.7322L7.26595 16.7413C7.72675 16.7101 8.2121 16.8794 8.56797 17.2562C8.94463 17.6549 9.13512 18.2568 8.97623 18.858L5.10901 17.8359ZM7.40123 20.7367H9.71507V16.7367H7.40123V20.7367ZM9.57978 20.7322C11.05 20.8318 12.1314 19.636 12.1314 18.3353H8.13137C8.13137 17.4945 8.84007 16.6728 9.85035 16.7413L9.57978 20.7322ZM12.1314 18.3353V9.75973H8.13137V18.3353H12.1314ZM12.1314 9.75973C12.1314 9.11889 11.8768 8.50429 11.4237 8.05114L8.59522 10.8796C8.29822 10.5826 8.13137 10.1797 8.13137 9.75973H12.1314ZM11.4237 8.05114C10.9705 7.598 10.3559 7.34343 9.71507 7.34343V11.3434C9.29505 11.3434 8.89223 11.1766 8.59522 10.8796L11.4237 8.05114ZM9.3814 15.9572H7.81754V19.9572H9.3814V15.9572ZM9.81754 17.9572V10.1768H5.81754V17.9572H9.81754ZM7.81754 12.1768H9.3814V8.17681H7.81754V12.1768ZM7.3814 10.1768V17.9572H11.3814V10.1768H7.3814Z" fill="white" mask="url(#path-1-inside-1_112_114)"/>
<mask id="path-3-inside-2_112_114" fill="white">
<path d="M12.5 0C5.60684 0 0 5.60684 0 12.5C0 19.3932 5.60684 25 12.5 25C19.3932 25 25 19.3932 25 12.5C25 5.60684 19.3932 0 12.5 0ZM12.5 24.1674C6.0668 24.1674 0.832606 18.9332 0.832606 12.5C0.832606 6.0668 6.0668 0.832606 12.5 0.832606C18.9332 0.832606 24.1674 6.0668 24.1674 12.5C24.1674 18.9332 18.9332 24.1674 12.5 24.1674Z"/>
</mask>
<path d="M12.5 0C5.60684 0 0 5.60684 0 12.5C0 19.3932 5.60684 25 12.5 25C19.3932 25 25 19.3932 25 12.5C25 5.60684 19.3932 0 12.5 0ZM12.5 24.1674C6.0668 24.1674 0.832606 18.9332 0.832606 12.5C0.832606 6.0668 6.0668 0.832606 12.5 0.832606C18.9332 0.832606 24.1674 6.0668 24.1674 12.5C24.1674 18.9332 18.9332 24.1674 12.5 24.1674Z" fill="white"/>
<path d="M12.5 -2C4.50227 -2 -2 4.50227 -2 12.5H2C2 6.71141 6.71141 2 12.5 2V-2ZM-2 12.5C-2 20.4977 4.50227 27 12.5 27V23C6.71141 23 2 18.2886 2 12.5H-2ZM12.5 27C20.4977 27 27 20.4977 27 12.5H23C23 18.2886 18.2886 23 12.5 23V27ZM27 12.5C27 4.50227 20.4977 -2 12.5 -2V2C18.2886 2 23 6.71141 23 12.5H27ZM12.5 22.1674C7.17137 22.1674 2.83261 17.8286 2.83261 12.5H-1.16739C-1.16739 20.0378 4.96223 26.1674 12.5 26.1674V22.1674ZM2.83261 12.5C2.83261 7.17137 7.17137 2.83261 12.5 2.83261V-1.16739C4.96223 -1.16739 -1.16739 4.96223 -1.16739 12.5H2.83261ZM12.5 2.83261C17.8286 2.83261 22.1674 7.17137 22.1674 12.5H26.1674C26.1674 4.96223 20.0378 -1.16739 12.5 -1.16739V2.83261ZM22.1674 12.5C22.1674 17.8286 17.8286 22.1674 12.5 22.1674V26.1674C20.0378 26.1674 26.1674 20.0378 26.1674 12.5H22.1674Z" fill="white" mask="url(#path-3-inside-2_112_114)"/>
</svg>
