<svg width="80" height="80" viewBox="0 0 80 80" fill="none" xmlns="http://www.w3.org/2000/svg">
<path d="M63.59 8.82C65.4633 9.54333 66.79 10.41 68.1967 11.8067L73.5145 15.507C72.6666 13.3117 71.609 11.6874 69.9666 10.041L69.9581 10.0326C68.3099 8.39614 66.6925 7.33898 64.4977 6.49059M63.59 8.82L64.5051 6.49352C64.5027 6.49255 64.5002 6.49157 64.4977 6.49059M63.59 8.82C62.1833 8.26667 60.0667 7.62 56.1667 7.43667L63.59 8.82ZM64.4977 6.49059C62.8328 5.83638 60.4472 5.13513 56.2841 4.93941L56.2753 4.93903C52.1103 4.75794 50.7589 4.70265 40.7571 4.70009M64.4977 6.49059L40.7571 4.70009M40.7571 4.70009L40.6069 4.6H39.85C29.2735 4.6 27.889 4.64889 23.7288 4.79578L23.5652 4.80156L23.5452 4.80226L23.5253 4.80328C19.3813 5.01579 17.0139 5.71587 15.3592 6.36725C13.0923 7.20434 11.4954 8.31905 9.88557 9.9289C8.26787 11.5466 7.15697 13.1404 6.31676 15.4106C5.66743 17.0697 4.97246 19.4786 4.75672 23.6165L4.75563 23.6375L4.75489 23.6585L4.74726 23.8747C4.60173 27.9949 4.55 29.4594 4.55 39.95C4.55 50.4515 4.60186 51.9028 4.7479 55.9891L4.75493 56.1859L4.75566 56.2064L4.75672 56.2268C4.97229 60.3614 5.66632 62.7733 6.31545 64.4327C7.07758 66.5078 8.29952 68.3834 9.88959 69.9189C11.4269 71.4956 13.2948 72.7116 15.3589 73.4792C17.0167 74.1283 19.4291 74.8274 23.5733 75.0433L23.5804 75.0436L23.5876 75.044C27.8873 75.2433 29.1813 75.2933 39.9 75.2933C50.6124 75.2933 51.906 75.25 56.2084 75.0575L56.2098 75.0574C60.3641 74.8692 62.7804 74.1644 64.4355 73.5201C66.5021 72.752 68.3737 71.5371 69.9167 69.9623C71.487 68.4159 72.7022 66.5466 73.4782 64.4838C74.1244 62.8272 74.8268 60.449 75.0433 56.2968L75.0439 56.2831C75.2433 52.0096 75.2933 50.695 75.2933 40C75.2933 29.3079 75.25 27.9972 75.0575 23.7209L75.0574 23.7202C74.8684 19.5473 74.158 17.1639 73.5155 15.5095L40.7571 4.70009ZM14.704 4.43084L14.7048 4.43053C16.9701 3.55105 19.5988 2.92663 23.6242 2.73739C27.8342 2.54992 29.1503 2.5 40 2.5C50.8577 2.5 52.1668 2.54009 56.3729 2.73726L56.3746 2.73734C60.3958 2.92312 63.0282 3.5504 65.2952 4.43053L65.3091 4.43592L65.3231 4.44115C67.6518 5.31343 69.7606 6.68626 71.5007 8.46273L71.5174 8.47974L71.5344 8.49644C73.3096 10.241 74.6834 12.3514 75.5603 14.6807L75.5645 14.692L75.5688 14.7032C76.4459 16.9669 77.0733 19.6028 77.2626 23.6233C77.4501 27.834 77.5 29.1495 77.5 40C77.5 50.8577 77.4599 52.1668 77.2627 56.3729L77.2627 56.3746C77.077 60.3938 76.4469 63.0277 75.5685 65.2979L75.5638 65.3099L75.5593 65.3219C74.6856 67.6508 73.3125 69.7601 71.5364 71.5016L71.5201 71.5176L71.5041 71.5338C69.7587 73.3088 67.6481 74.6829 65.3186 75.5605L65.3082 75.5645L65.2979 75.5685C63.0297 76.4461 60.3965 77.0733 56.3767 77.2626C52.166 77.4501 50.8505 77.5 40 77.5C29.1423 77.5 27.8332 77.4599 23.6271 77.2627L23.6254 77.2627C19.6068 77.077 16.9758 76.447 14.7011 75.5681L14.69 75.5638L14.6788 75.5596C12.3498 74.685 10.2402 73.3117 8.49789 71.5359L8.48174 71.5194L8.46529 71.5032C6.68991 69.7592 5.3162 67.649 4.43989 65.3197L4.43527 65.3074L4.43053 65.2952C3.55112 63.0301 2.92664 60.3981 2.73739 56.3757C2.54992 52.1658 2.5 50.8497 2.5 40C2.5 29.1423 2.54009 27.8332 2.73726 23.6271L2.73734 23.6253C2.92312 19.6011 3.55033 16.972 4.43053 14.7048L4.43222 14.7004C5.33048 12.3738 6.51809 10.4441 8.4811 8.4811C10.4423 6.51994 12.3754 5.33393 14.704 4.43084ZM33.0964 23.3332C35.2851 22.4266 37.631 21.96 40 21.96C44.7845 21.96 49.373 23.8606 52.7562 27.2438C56.1394 30.6269 58.04 35.2155 58.04 40C58.04 44.7845 56.1394 49.373 52.7562 52.7562C49.373 56.1394 44.7845 58.04 40 58.04C37.631 58.04 35.2851 57.5734 33.0964 56.6668C30.9077 55.7602 28.919 54.4314 27.2438 52.7562C25.5686 51.081 24.2398 49.0923 23.3332 46.9036C22.4266 44.7149 21.96 42.369 21.96 40C21.96 37.631 22.4266 35.2851 23.3332 33.0964C24.2398 30.9077 25.5686 28.919 27.2438 27.2438C28.919 25.5686 30.9077 24.2398 33.0964 23.3332ZM62.9514 20.1298L64.6859 21.9302L62.9514 20.1298C62.5222 20.5434 61.9494 20.7744 61.3533 20.7744C60.7573 20.7744 60.1845 20.5434 59.7552 20.1298C59.3372 19.7271 59.0871 19.1818 59.0538 18.6034C59.0658 18.0103 59.3066 17.444 59.727 17.0237C60.1583 16.5923 60.7433 16.35 61.3533 16.35C61.9633 16.35 62.5483 16.5923 62.9797 17.0237C63.4 17.444 63.6409 18.0103 63.6529 18.6034C63.6196 19.1818 63.3694 19.7271 62.9514 20.1298ZM24.1667 40C24.1667 48.7474 31.2526 55.8333 40 55.8333C48.7474 55.8333 55.8333 48.7474 55.8333 40C55.8333 31.2526 48.7474 24.1667 40 24.1667C31.2526 24.1667 24.1667 31.2526 24.1667 40Z" fill="white" stroke="white" stroke-width="5"/>
</svg>
