<svg width="80" height="80" viewBox="0 0 80 80" fill="none" xmlns="http://www.w3.org/2000/svg">
<path d="M40 74.5C49.15 74.5 57.9252 70.8652 64.3952 64.3952C70.8652 57.9252 74.5 49.15 74.5 40C74.5 30.85 70.8652 22.0748 64.3952 15.6048C57.9252 9.13481 49.15 5.5 40 5.5C30.85 5.5 22.0748 9.13481 15.6048 15.6048C9.13481 22.0748 5.5 30.85 5.5 40C5.5 49.15 9.13481 57.9252 15.6048 64.3952C22.0748 70.8652 30.85 74.5 40 74.5ZM40 77.5C19.2887 77.5 2.5 60.7113 2.5 40C2.5 19.2887 19.2887 2.5 40 2.5C60.7113 2.5 77.5 19.2887 77.5 40C77.5 60.7113 60.7113 77.5 40 77.5Z" fill="white" stroke="white" stroke-width="5"/>
<path d="M59.2 26.8281C57.728 27.4681 56.1479 27.9081 54.4879 28.1001C56.1839 27.1001 57.4799 25.5161 58.096 23.6321C56.4798 24.5739 54.7164 25.2366 52.88 25.5921C52.1075 24.7824 51.1781 24.1385 50.1486 23.6998C49.1191 23.261 48.011 23.0365 46.892 23.0401C42.36 23.0401 38.688 26.6601 38.688 31.1201C38.688 31.7521 38.76 32.3681 38.9 32.9601C35.6493 32.8057 32.4664 31.9755 29.5545 30.5223C26.6427 29.0691 24.0657 27.0249 21.988 24.5201C21.2582 25.7485 20.874 27.1513 20.876 28.5801C20.876 31.3801 22.328 33.8601 24.528 35.3041C23.2257 35.2632 21.9514 34.9166 20.808 34.2921V34.3921C20.8203 36.2699 21.4832 38.0854 22.6836 39.5295C23.8841 40.9736 25.548 41.9569 27.392 42.3121C26.1814 42.6322 24.9147 42.6786 23.684 42.4481C24.2205 44.0636 25.2466 45.4719 26.62 46.4776C27.9934 47.4833 29.6459 48.0364 31.3479 48.0601C28.4278 50.3103 24.8425 51.5261 21.156 51.5161C20.496 51.5161 19.844 51.4761 19.2 51.4041C22.9618 53.7852 27.3238 55.0464 31.776 55.0401C46.872 55.0401 55.124 42.7281 55.124 32.0481L55.096 31.0001C56.7051 29.8692 58.0957 28.4556 59.2 26.8281Z" fill="white"/>
</svg>
