<svg width="72" height="72" viewBox="0 0 72 72" fill="none" xmlns="http://www.w3.org/2000/svg">
<path d="M69.5 36.2173C69.5 52.0285 58.692 65.2864 44.1238 68.9351V49.1816H50.0054H52.1535L52.4769 47.058L54.0719 36.5865L54.51 33.7101H51.6004H44.1238V29.4187C44.1238 28.3468 44.3896 27.5936 44.7774 27.1417C45.1045 26.7606 45.8034 26.2573 47.4852 26.2573H52.036H54.536V23.7573V14.8506V12.7422L52.4578 12.3864L52.036 14.8506C52.4578 12.3864 52.4576 12.3864 52.4574 12.3864L52.4569 12.3863L52.4555 12.386L52.4517 12.3854L52.4397 12.3834L52.3979 12.3764C52.3623 12.3705 52.3116 12.3621 52.2466 12.3517C52.1168 12.3309 51.9301 12.3018 51.695 12.2671C51.2254 12.1977 50.5604 12.1058 49.7684 12.0141C48.1954 11.8318 46.0742 11.6443 43.9712 11.6443C39.3523 11.6443 35.2582 13.0616 32.3174 16.0229C29.376 18.9849 27.8762 23.2015 27.8762 28.2379V33.7173H21.2313H18.7313V36.2173V46.6888V49.1888H21.2313H27.8762V68.9399C13.3067 65.2793 2.5 52.0237 2.5 36.2173C2.5 17.5826 17.5137 2.5 36 2.5C54.4863 2.5 69.5 17.5826 69.5 36.2173Z" fill="#0F1221" stroke="white" stroke-width="5"/>
</svg>
