<svg width="72" height="72" viewBox="0 0 72 72" fill="none" xmlns="http://www.w3.org/2000/svg">
<path d="M36 0C26.22 0 24.999 0.045 21.159 0.216C17.325 0.396 14.715 0.999 12.42 1.89C10.053 2.808 8.043 4.041 6.042 6.042C4.041 8.043 2.805 10.05 1.89 12.42C0.999 14.715 0.393 17.325 0.216 21.159C0.036 24.999 0 26.22 0 36C0 45.78 0.045 47.001 0.216 50.841C0.396 54.672 0.999 57.285 1.89 59.58C2.79388 61.9826 4.21079 64.1591 6.042 65.958C7.83983 67.7905 10.0167 69.2076 12.42 70.11C14.718 70.998 17.328 71.607 21.159 71.784C24.999 71.964 26.22 72 36 72C45.78 72 47.001 71.955 50.841 71.784C54.672 71.604 57.285 70.998 59.58 70.11C61.982 69.205 64.1583 67.7882 65.958 65.958C67.7911 64.1607 69.2083 61.9837 70.11 59.58C70.998 57.285 71.607 54.672 71.784 50.841C71.964 47.001 72 45.78 72 36C72 26.22 71.955 24.999 71.784 21.159C71.604 17.328 70.998 14.712 70.11 12.42C69.2057 10.0177 67.7888 7.84118 65.958 6.042C64.1615 4.20792 61.9842 2.79057 59.58 1.89C57.285 0.999 54.672 0.393 50.841 0.216C47.001 0.036 45.78 0 36 0ZM36 6.48C45.609 6.48 46.755 6.528 50.55 6.693C54.06 6.858 55.965 7.44 57.231 7.938C58.917 8.589 60.111 9.369 61.377 10.626C62.634 11.886 63.414 13.083 64.065 14.769C64.557 16.035 65.145 17.94 65.304 21.45C65.475 25.248 65.514 26.388 65.514 36C65.514 45.612 65.469 46.755 65.292 50.55C65.109 54.06 64.524 55.965 64.029 57.231C63.4434 58.7933 62.5228 60.2084 61.332 61.377C60.1684 62.5689 58.7542 63.4871 57.192 64.065C55.932 64.557 53.997 65.145 50.487 65.304C46.665 65.475 45.54 65.514 35.91 65.514C26.277 65.514 25.152 65.469 21.333 65.292C17.82 65.109 15.885 64.524 14.625 64.029C13.0617 63.4506 11.648 62.529 10.488 61.332C9.28374 60.1762 8.36014 58.76 7.788 57.192C7.293 55.932 6.711 53.997 6.528 50.487C6.393 46.707 6.345 45.54 6.345 35.955C6.345 26.367 6.393 25.197 6.528 21.372C6.711 17.862 7.293 15.93 7.788 14.67C8.418 12.96 9.225 11.79 10.488 10.527C11.745 9.27 12.918 8.46 14.625 7.833C15.885 7.335 17.778 6.75 21.288 6.57C25.113 6.435 26.238 6.39 35.865 6.39L36 6.48ZM36 17.514C33.5724 17.514 31.1685 17.9922 28.9257 18.9212C26.6829 19.8502 24.645 21.2118 22.9284 22.9284C21.2118 24.645 19.8502 26.6829 18.9212 28.9257C17.9922 31.1685 17.514 33.5724 17.514 36C17.514 38.4276 17.9922 40.8315 18.9212 43.0743C19.8502 45.3171 21.2118 47.355 22.9284 49.0716C24.645 50.7882 26.6829 52.1498 28.9257 53.0788C31.1685 54.0078 33.5724 54.486 36 54.486C40.9028 54.486 45.6048 52.5384 49.0716 49.0716C52.5384 45.6048 54.486 40.9028 54.486 36C54.486 31.0972 52.5384 26.3952 49.0716 22.9284C45.6048 19.4616 40.9028 17.514 36 17.514ZM36 48C29.37 48 24 42.63 24 36C24 29.37 29.37 24 36 24C42.63 24 48 29.37 48 36C48 42.63 42.63 48 36 48ZM59.538 16.785C59.4963 17.9029 59.023 18.9611 58.2174 19.7372C57.4118 20.5133 56.3367 20.947 55.218 20.947C54.0993 20.947 53.0243 20.5133 52.2186 19.7372C51.413 18.9611 50.9397 17.9029 50.898 16.785C50.898 15.6393 51.3531 14.5405 52.1633 13.7303C52.9735 12.9201 54.0723 12.465 55.218 12.465C56.3637 12.465 57.4625 12.9201 58.2727 13.7303C59.0829 14.5405 59.538 15.6393 59.538 16.785Z" fill="white"/>
</svg>
