<svg width="72" height="72" viewBox="0 0 72 72" fill="none" xmlns="http://www.w3.org/2000/svg">
<path d="M39.2059 30.0642L39.2062 30.0636L39.2059 30.0642ZM39.2059 30.0642L39.2016 30.0729M39.2059 30.0642L39.2016 30.0729M39.2016 30.0729L39.2091 30.0683M39.2016 30.0729L39.2091 30.0683M39.2091 30.0683L39.2168 30.0636L39.2091 30.0683Z" fill="white" stroke="white" stroke-width="5"/>
<mask id="path-2-inside-1_112_201" fill="white">
<path d="M36 0C16.1477 0 0 16.1477 0 36C0 55.8523 16.1477 72 36 72C55.8523 72 72 55.8523 72 36C72 16.1477 55.8523 0 36 0ZM36 69.6021C17.4724 69.6021 2.3979 54.5276 2.3979 36C2.3979 17.4724 17.4724 2.3979 36 2.3979C54.5276 2.3979 69.6021 17.4724 69.6021 36C69.6021 54.5276 54.5276 69.6021 36 69.6021Z"/>
</mask>
<path d="M36 0C16.1477 0 0 16.1477 0 36C0 55.8523 16.1477 72 36 72C55.8523 72 72 55.8523 72 36C72 16.1477 55.8523 0 36 0ZM36 69.6021C17.4724 69.6021 2.3979 54.5276 2.3979 36C2.3979 17.4724 17.4724 2.3979 36 2.3979C54.5276 2.3979 69.6021 17.4724 69.6021 36C69.6021 54.5276 54.5276 69.6021 36 69.6021Z" fill="white"/>
<path d="M36 -5C13.3863 -5 -5 13.3863 -5 36H5C5 18.9091 18.9091 5 36 5V-5ZM-5 36C-5 58.6137 13.3863 77 36 77V67C18.9091 67 5 53.0909 5 36H-5ZM36 77C58.6137 77 77 58.6137 77 36H67C67 53.0909 53.0909 67 36 67V77ZM77 36C77 13.3863 58.6137 -5 36 -5V5C53.0909 5 67 18.9091 67 36H77ZM36 64.6021C20.2338 64.6021 7.3979 51.7662 7.3979 36H-2.6021C-2.6021 57.2891 14.7109 74.6021 36 74.6021V64.6021ZM7.3979 36C7.3979 20.2338 20.2338 7.3979 36 7.3979V-2.6021C14.7109 -2.6021 -2.6021 14.7109 -2.6021 36H7.3979ZM36 7.3979C51.7662 7.3979 64.6021 20.2338 64.6021 36H74.6021C74.6021 14.7109 57.2891 -2.6021 36 -2.6021V7.3979ZM64.6021 36C64.6021 51.7662 51.7662 64.6021 36 64.6021V74.6021C57.2891 74.6021 74.6021 57.2891 74.6021 36H64.6021Z" fill="white" mask="url(#path-2-inside-1_112_201)"/>
</svg>
