<svg width="72" height="72" viewBox="0 0 72 72" fill="none" xmlns="http://www.w3.org/2000/svg">
<path d="M36 64.8C43.6382 64.8 50.9636 61.7657 56.3647 56.3647C61.7657 50.9636 64.8 43.6382 64.8 36C64.8 28.3618 61.7657 21.0364 56.3647 15.6353C50.9636 10.2343 43.6382 7.2 36 7.2C28.3618 7.2 21.0364 10.2343 15.6353 15.6353C10.2343 21.0364 7.2 28.3618 7.2 36C7.2 43.6382 10.2343 50.9636 15.6353 56.3647C21.0364 61.7657 28.3618 64.8 36 64.8ZM36 72C16.1172 72 0 55.8828 0 36C0 16.1172 16.1172 0 36 0C55.8828 0 72 16.1172 72 36C72 55.8828 55.8828 72 36 72Z" fill="white"/>
<path d="M53.28 24.1453C51.9552 24.7213 50.5332 25.1173 49.0392 25.2901C50.5656 24.3901 51.732 22.9645 52.2864 21.2689C50.8319 22.1166 49.2449 22.713 47.592 23.0329C46.8968 22.3042 46.0604 21.7247 45.1338 21.3298C44.2073 20.9349 43.21 20.7329 42.2028 20.7361C38.124 20.7361 34.8192 23.9941 34.8192 28.0081C34.8192 28.5769 34.884 29.1313 35.01 29.6641C32.0844 29.5252 29.2199 28.778 26.5992 27.4701C23.9785 26.1622 21.6592 24.3224 19.7892 22.0681C19.1325 23.1737 18.7867 24.4362 18.7884 25.7221C18.7884 28.2421 20.0952 30.4741 22.0752 31.7737C20.9032 31.737 19.7563 31.425 18.7272 30.8629V30.9529C18.7384 32.643 19.3349 34.2769 20.4153 35.5766C21.4958 36.8763 22.9932 37.7613 24.6528 38.0809C23.5633 38.369 22.4233 38.4108 21.3156 38.2033C21.7985 39.6572 22.7221 40.9248 23.9581 41.8299C25.1942 42.735 26.6814 43.2328 28.2132 43.2541C25.5851 45.2793 22.3583 46.3735 19.0404 46.3645C18.4464 46.3645 17.8596 46.3285 17.28 46.2637C20.6657 48.4068 24.5915 49.5418 28.5984 49.5361C42.1848 49.5361 49.6116 38.4553 49.6116 28.8433L49.5864 27.9001C51.0347 26.8823 52.2862 25.6101 53.28 24.1453Z" fill="white"/>
</svg>
