<svg width="80" height="80" viewBox="0 0 80 80" fill="none" xmlns="http://www.w3.org/2000/svg">
<mask id="path-1-inside-1_112_236" fill="white">
<path d="M48.7687 29.9015C47.0773 29.9015 45.825 30.3281 44.8446 30.8669C44.6874 30.3081 44.171 29.899 43.5623 30.0212H36.1181C35.3822 29.899 34.7859 30.4952 35.013 31.2686V58.7102C34.7859 59.4088 35.3822 60.0075 36.1181 59.9576H43.5623C44.2982 60.0075 44.8945 59.4088 44.8945 58.6728L44.892 42.0881C44.8895 42.0806 44.862 41.2873 45.3635 40.7409C45.7651 40.3069 46.4561 40.0848 47.4116 40.0848C49.0032 40.0848 49.7117 40.7359 49.9762 42.1928V58.6728C49.7142 59.4088 50.3104 60.0075 51.0464 59.9576H58.8922C59.6282 60.0075 60.2244 59.4088 59.9599 58.6728V41.639C60.2219 32.9774 54.0525 29.9015 48.7687 29.9015V29.9015ZM57.5576 57.4629H52.3786V42.1928C52.3786 39.2466 50.4751 37.4205 47.4141 37.4205C45.6828 37.4205 44.3356 37.9294 43.4076 38.9323C42.1179 40.3293 42.2176 42.1005 42.4946 42.4947V57.4629H37.4503V32.5658H42.2301V33.404C42.2282 33.6537 42.2967 33.8989 42.4278 34.1114C42.559 34.3239 42.7474 34.4951 42.9715 34.6053C43.1956 34.7155 43.4462 34.7603 43.6946 34.7344C43.9429 34.7086 44.179 34.6132 44.3756 34.4593L44.7248 34.1898C45.7352 33.394 46.7805 32.5683 48.7712 32.5683C50.8318 32.5683 57.56 33.2244 57.56 41.6415V57.4629H57.5576ZM27.5264 17.4629C24.7273 17.4629 22.4521 19.7381 22.4521 22.5371C22.4521 25.3362 24.7273 27.6113 27.5264 27.6113C30.3254 27.6113 32.6006 25.3362 32.6006 22.5371C32.6006 19.7381 30.3254 17.4629 27.5264 17.4629ZM27.5264 24.947C26.1992 24.947 25.1165 23.8643 25.1165 22.5371C25.1165 21.2099 26.1992 20.1272 27.5264 20.1272C28.8535 20.1272 29.9362 21.2099 29.9362 22.5371C29.9362 23.8643 28.8535 24.947 27.5264 24.947ZM31.0888 29.899H23.6845C22.9486 29.899 22.3524 30.4952 22.537 31.2686V58.7102C22.3524 59.4088 22.9486 60.0075 23.6845 59.9576H31.0888C31.8247 60.0075 32.421 59.4088 32.421 58.6728V31.2311C32.421 30.8778 32.2806 30.539 32.0308 30.2891C31.781 30.0393 31.4421 29.899 31.0888 29.899ZM30.0211 57.4629H25.0167V32.5658H30.0211V57.4629Z"/>
</mask>
<path d="M48.7687 29.9015C47.0773 29.9015 45.825 30.3281 44.8446 30.8669C44.6874 30.3081 44.171 29.899 43.5623 30.0212H36.1181C35.3822 29.899 34.7859 30.4952 35.013 31.2686V58.7102C34.7859 59.4088 35.3822 60.0075 36.1181 59.9576H43.5623C44.2982 60.0075 44.8945 59.4088 44.8945 58.6728L44.892 42.0881C44.8895 42.0806 44.862 41.2873 45.3635 40.7409C45.7651 40.3069 46.4561 40.0848 47.4116 40.0848C49.0032 40.0848 49.7117 40.7359 49.9762 42.1928V58.6728C49.7142 59.4088 50.3104 60.0075 51.0464 59.9576H58.8922C59.6282 60.0075 60.2244 59.4088 59.9599 58.6728V41.639C60.2219 32.9774 54.0525 29.9015 48.7687 29.9015V29.9015ZM57.5576 57.4629H52.3786V42.1928C52.3786 39.2466 50.4751 37.4205 47.4141 37.4205C45.6828 37.4205 44.3356 37.9294 43.4076 38.9323C42.1179 40.3293 42.2176 42.1005 42.4946 42.4947V57.4629H37.4503V32.5658H42.2301V33.404C42.2282 33.6537 42.2967 33.8989 42.4278 34.1114C42.559 34.3239 42.7474 34.4951 42.9715 34.6053C43.1956 34.7155 43.4462 34.7603 43.6946 34.7344C43.9429 34.7086 44.179 34.6132 44.3756 34.4593L44.7248 34.1898C45.7352 33.394 46.7805 32.5683 48.7712 32.5683C50.8318 32.5683 57.56 33.2244 57.56 41.6415V57.4629H57.5576ZM27.5264 17.4629C24.7273 17.4629 22.4521 19.7381 22.4521 22.5371C22.4521 25.3362 24.7273 27.6113 27.5264 27.6113C30.3254 27.6113 32.6006 25.3362 32.6006 22.5371C32.6006 19.7381 30.3254 17.4629 27.5264 17.4629ZM27.5264 24.947C26.1992 24.947 25.1165 23.8643 25.1165 22.5371C25.1165 21.2099 26.1992 20.1272 27.5264 20.1272C28.8535 20.1272 29.9362 21.2099 29.9362 22.5371C29.9362 23.8643 28.8535 24.947 27.5264 24.947ZM31.0888 29.899H23.6845C22.9486 29.899 22.3524 30.4952 22.537 31.2686V58.7102C22.3524 59.4088 22.9486 60.0075 23.6845 59.9576H31.0888C31.8247 60.0075 32.421 59.4088 32.421 58.6728V31.2311C32.421 30.8778 32.2806 30.539 32.0308 30.2891C31.781 30.0393 31.4421 29.899 31.0888 29.899ZM30.0211 57.4629H25.0167V32.5658H30.0211V57.4629Z" fill="white"/>
<path d="M44.8446 30.8669L40.0313 32.2206L41.7358 38.281L47.2529 35.2487L44.8446 30.8669ZM43.5623 30.0212V35.0212H44.0594L44.5467 34.9233L43.5623 30.0212ZM36.1181 30.0212L35.2988 34.9536L35.7057 35.0212H36.1181V30.0212ZM35.013 31.2686H40.013V30.5498L39.8105 29.8602L35.013 31.2686ZM35.013 58.7102L39.7681 60.2557L40.013 59.5023V58.7102H35.013ZM36.1181 59.9576V54.9576H35.9488L35.7799 54.969L36.1181 59.9576ZM43.5623 59.9576L43.9005 54.969L43.7316 54.9576H43.5623V59.9576ZM44.8945 58.6728L49.8945 58.6728L49.8945 58.6721L44.8945 58.6728ZM44.892 42.0881L49.892 42.0873L49.8918 41.2763L49.6354 40.5069L44.892 42.0881ZM45.3635 40.7409L41.6935 37.3451L41.6866 37.3526L41.6798 37.36L45.3635 40.7409ZM49.9762 42.1928H54.9762V41.7427L54.8958 41.2999L49.9762 42.1928ZM49.9762 58.6728L54.6867 60.3494L54.9762 59.5361V58.6728H49.9762ZM51.0464 59.9576V54.9576H50.8771L50.7082 54.969L51.0464 59.9576ZM58.8922 59.9576L59.2304 54.969L59.0615 54.9576H58.8922V59.9576ZM59.9599 58.6728H54.9599V59.5439L55.2545 60.3636L59.9599 58.6728ZM59.9599 41.639L54.9622 41.4879L54.9599 41.5634V41.639H59.9599ZM52.3786 57.4629H47.3786V62.4629H52.3786V57.4629ZM43.4076 38.9323L39.7378 35.5363L39.7339 35.5406L43.4076 38.9323ZM42.4946 42.4947H47.4946V40.9139L46.5858 39.6204L42.4946 42.4947ZM42.4946 57.4629V62.4629H47.4946V57.4629H42.4946ZM37.4503 57.4629H32.4503V62.4629H37.4503V57.4629ZM37.4503 32.5658V27.5658H32.4503V32.5658H37.4503ZM42.2301 32.5658H47.2301V27.5658H42.2301V32.5658ZM42.2301 33.404L47.23 33.4431L47.2301 33.4236V33.404H42.2301ZM44.3756 34.4593L41.3215 30.5004L41.3071 30.5115L41.2927 30.5228L44.3756 34.4593ZM44.7248 34.1898L47.7789 38.1487L47.7988 38.1333L47.8186 38.1177L44.7248 34.1898ZM57.56 57.4629V62.4629H62.56V57.4629H57.56ZM31.0888 29.899L31.0888 34.899L31.0888 29.899ZM22.537 31.2686H27.537V30.68L27.4003 30.1076L22.537 31.2686ZM22.537 58.7102L27.371 59.9878L27.537 59.3598V58.7102H22.537ZM23.6845 59.9576V54.9576H23.5152L23.3463 54.969L23.6845 59.9576ZM31.0888 59.9576L31.427 54.969L31.2581 54.9576H31.0888V59.9576ZM30.0211 57.4629V62.4629H35.0211V57.4629H30.0211ZM25.0167 57.4629H20.0167V62.4629H25.0167V57.4629ZM25.0167 32.5658V27.5658H20.0167V32.5658H25.0167ZM30.0211 32.5658H35.0211V27.5658H30.0211V32.5658ZM48.7687 24.9015C46.1584 24.9015 44.0841 25.5794 42.4363 26.4851L47.2529 35.2487C47.4366 35.1477 47.6238 35.0683 47.8385 35.0106C48.0528 34.9529 48.3517 34.9015 48.7687 34.9015V24.9015ZM49.6578 29.5132C48.945 26.9787 46.266 24.3784 42.5778 25.1191L44.5467 34.9233C42.076 35.4195 40.4298 33.6375 40.0313 32.2206L49.6578 29.5132ZM43.5623 25.0212H36.1181V35.0212H43.5623V25.0212ZM36.9374 25.0888C35.0241 24.771 32.9632 25.3651 31.53 26.918C30.0473 28.5247 29.6404 30.7181 30.2154 32.6769L39.8105 29.8602C40.1585 31.0457 39.9362 32.5543 38.8788 33.7C37.871 34.7921 36.4761 35.1492 35.2988 34.9536L36.9374 25.0888ZM30.013 31.2686V58.7102H40.013V31.2686H30.013ZM30.2578 57.1648C29.5579 59.3185 30.1526 61.511 31.5277 63.0031C32.8244 64.41 34.663 65.0677 36.4563 64.9461L35.7799 54.969C36.8372 54.8974 38.0098 55.2807 38.8811 56.2261C39.8309 57.2566 40.241 58.8005 39.7681 60.2557L30.2578 57.1648ZM36.1181 64.9576H43.5623V54.9576H36.1181V64.9576ZM43.2241 64.9461C47.0607 65.2062 49.8945 62.0857 49.8945 58.6728H39.8945C39.8945 56.7319 41.5358 54.8087 43.9005 54.969L43.2241 64.9461ZM49.8945 58.6721L49.892 42.0873L39.892 42.0888L39.8945 58.6736L49.8945 58.6721ZM49.6354 40.5069C49.7342 40.8033 49.7822 41.0429 49.7976 41.1214C49.8192 41.231 49.8329 41.3199 49.8404 41.3717C49.8554 41.4756 49.8639 41.5578 49.8676 41.5958C49.8758 41.6781 49.88 41.7425 49.8817 41.7697C49.8857 41.8329 49.8876 41.8823 49.8885 41.9082C49.8904 41.9663 49.8909 42.0136 49.8909 42.0484C49.891 42.1206 49.8889 42.185 49.8855 42.2432C49.8789 42.3561 49.8649 42.4859 49.8345 42.6322C49.7862 42.8648 49.6256 43.4915 49.0471 44.1218L41.6798 37.36C40.5999 38.5367 40.2022 39.8332 40.043 40.6009C39.9571 41.0148 39.919 41.3785 39.9026 41.6593C39.8943 41.8015 39.8909 41.9333 39.8909 42.0525C39.891 42.1107 39.8918 42.1764 39.8942 42.2473C39.8953 42.2794 39.8974 42.3338 39.9016 42.4005C39.9035 42.4294 39.9078 42.4952 39.916 42.5785C39.9198 42.617 39.9284 42.6996 39.9434 42.8038C39.951 42.8558 39.9646 42.9447 39.9863 43.0545C40.0017 43.133 40.0497 43.3728 40.1485 43.6692L49.6354 40.5069ZM49.0334 44.1367C48.5335 44.677 48.0048 44.9157 47.7063 45.0114C47.4263 45.1012 47.2964 45.0848 47.4116 45.0848V35.0848C45.8888 35.0848 43.4854 35.4086 41.6935 37.3451L49.0334 44.1367ZM47.4116 45.0848C47.5961 45.0848 46.8171 45.1304 45.9689 44.4154C45.1257 43.7046 45.0275 42.9257 45.0565 43.0858L54.8958 41.2999C54.6604 40.0031 54.0757 38.1702 52.4142 36.7696C50.7478 35.3648 48.8187 35.0848 47.4116 35.0848V45.0848ZM44.9762 42.1928V58.6728H54.9762V42.1928H44.9762ZM45.2656 56.9962C44.5271 59.071 44.972 61.3177 46.3924 62.9231C47.7117 64.4142 49.5997 65.0672 51.3846 64.9461L50.7082 54.969C51.7572 54.8979 52.9791 55.2764 53.8818 56.2967C54.8855 57.4312 55.1632 59.0105 54.6867 60.3494L45.2656 56.9962ZM51.0464 64.9576H58.8922V54.9576H51.0464V64.9576ZM58.554 64.9461C60.338 65.0671 62.2281 64.4148 63.5484 62.9203C64.9714 61.3095 65.411 59.057 64.6654 56.982L55.2545 60.3636C54.7734 59.0246 55.047 57.4394 56.0541 56.2995C56.9584 55.2759 58.1823 54.898 59.2304 54.969L58.554 64.9461ZM64.9599 58.6728V41.639H54.9599V58.6728H64.9599ZM64.9577 41.7902C65.1289 36.1278 63.1464 31.6683 59.6895 28.7186C56.4003 25.912 52.285 24.9015 48.7687 24.9015V34.9015C50.5362 34.9015 52.1475 35.4289 53.1985 36.3257C54.0817 37.0793 55.0529 38.4886 54.9622 41.4879L64.9577 41.7902ZM57.5576 52.4629H52.3786V62.4629H57.5576V52.4629ZM57.3786 57.4629V42.1928H47.3786V57.4629H57.3786ZM57.3786 42.1928C57.3786 39.6145 56.5182 37.0273 54.5083 35.0963C52.5216 33.1875 49.9343 32.4205 47.4141 32.4205V42.4205C47.5487 42.4205 47.6459 42.4305 47.7095 42.4408C47.7411 42.4459 47.7641 42.451 47.7791 42.4548C47.794 42.4586 47.801 42.4611 47.8011 42.4611C47.8011 42.4611 47.7994 42.4605 47.7962 42.4592C47.7929 42.4579 47.7882 42.4558 47.7821 42.4529C47.7697 42.4471 47.7524 42.4381 47.7312 42.4252C47.6876 42.3987 47.6348 42.3599 47.5801 42.3074C47.5253 42.2547 47.478 42.1971 47.4401 42.1397C47.4024 42.0825 47.3806 42.0354 47.3695 42.0066C47.3468 41.9478 47.3786 41.9937 47.3786 42.1928H57.3786ZM47.4141 32.4205C44.6833 32.4205 41.8501 33.2537 39.7378 35.5363L47.0774 42.3282C47.0404 42.3682 46.9961 42.406 46.9502 42.4366C46.9285 42.451 46.9099 42.4615 46.896 42.4686C46.8821 42.4756 46.8747 42.4784 46.8753 42.4782C46.8775 42.4773 47.0311 42.4205 47.4141 42.4205V32.4205ZM39.7339 35.5406C38.314 37.0785 37.6493 38.8365 37.4207 40.3359C37.3073 41.0799 37.2896 41.8293 37.3721 42.5428C37.4312 43.0536 37.6115 44.2419 38.4033 45.369L46.5858 39.6204C46.9705 40.168 47.1306 40.6495 47.1898 40.8468C47.2633 41.0911 47.2928 41.2806 47.3059 41.3937C47.3321 41.6205 47.3182 41.766 47.3065 41.8432C47.2811 42.0092 47.2114 42.1831 47.0814 42.3239L39.7339 35.5406ZM37.4946 42.4947V57.4629H47.4946V42.4947H37.4946ZM42.4946 52.4629H37.4503V62.4629H42.4946V52.4629ZM42.4503 57.4629V32.5658H32.4503V57.4629H42.4503ZM37.4503 37.5658H42.2301V27.5658H37.4503V37.5658ZM37.2301 32.5658V33.404H47.2301V32.5658H37.2301ZM37.2303 33.3649C37.221 34.5554 37.5477 35.7243 38.1729 36.7373L46.6828 31.4855C47.0457 32.0735 47.2354 32.752 47.23 33.4431L37.2303 33.3649ZM38.1729 36.7373C38.7981 37.7504 39.6964 38.5665 40.7647 39.092L45.1783 30.1187C45.7984 30.4237 46.3199 30.8974 46.6828 31.4855L38.1729 36.7373ZM40.7647 39.092C41.8329 39.6174 43.0277 39.8308 44.2118 39.7076L43.1773 29.7613C43.8646 29.6898 44.5582 29.8137 45.1783 30.1187L40.7647 39.092ZM44.2118 39.7076C45.3959 39.5845 46.5212 39.1298 47.4584 38.3958L41.2927 30.5228C41.8368 30.0967 42.49 29.8328 43.1773 29.7613L44.2118 39.7076ZM47.4296 38.4182L47.7789 38.1487L41.6708 30.2309L41.3215 30.5004L47.4296 38.4182ZM47.8186 38.1177C48.0897 37.9042 48.2322 37.7936 48.3656 37.7005C48.4813 37.6197 48.5333 37.5934 48.5464 37.5871C48.5529 37.584 48.5494 37.5854 48.5536 37.5844C48.5602 37.5829 48.6244 37.5683 48.7712 37.5683V27.5683C44.9855 27.5683 42.7854 29.3527 41.631 30.262L47.8186 38.1177ZM48.7712 37.5683C49.435 37.5683 50.5143 37.7031 51.2823 38.1846C51.5944 38.3804 51.8547 38.6311 52.0631 39.0227C52.2784 39.4271 52.56 40.2125 52.56 41.6415H62.56C62.56 35.8362 60.0951 31.9072 56.5945 29.7123C53.4832 27.7615 50.1681 27.5683 48.7712 27.5683V37.5683ZM52.56 41.6415V57.4629H62.56V41.6415H52.56ZM57.56 52.4629H57.5576V62.4629H57.56V52.4629ZM27.5264 12.4629C21.9659 12.4629 17.4521 16.9766 17.4521 22.5371H27.4521C27.4521 22.5267 27.4531 22.5215 27.4535 22.5197C27.4539 22.5176 27.4545 22.5157 27.4555 22.5133C27.4578 22.5078 27.4637 22.4973 27.4751 22.4859C27.4866 22.4745 27.497 22.4686 27.5025 22.4662C27.5049 22.4652 27.5069 22.4647 27.509 22.4642C27.5107 22.4639 27.516 22.4629 27.5264 22.4629V12.4629ZM17.4521 22.5371C17.4521 28.0976 21.9659 32.6113 27.5264 32.6113V22.6113C27.516 22.6113 27.5107 22.6104 27.509 22.61C27.5069 22.6096 27.5049 22.609 27.5025 22.608C27.497 22.6056 27.4866 22.5997 27.4751 22.5883C27.4637 22.5769 27.4578 22.5665 27.4555 22.5609C27.4545 22.5585 27.4539 22.5566 27.4535 22.5545C27.4531 22.5527 27.4521 22.5475 27.4521 22.5371H17.4521ZM27.5264 32.6113C33.0868 32.6113 37.6006 28.0976 37.6006 22.5371H27.6006C27.6006 22.5475 27.5996 22.5527 27.5992 22.5545C27.5988 22.5566 27.5982 22.5585 27.5972 22.5609C27.5949 22.5665 27.589 22.5769 27.5776 22.5883C27.5662 22.5997 27.5557 22.6056 27.5502 22.608C27.5478 22.609 27.5459 22.6096 27.5438 22.61C27.542 22.6104 27.5367 22.6113 27.5264 22.6113V32.6113ZM37.6006 22.5371C37.6006 16.9766 33.0868 12.4629 27.5264 12.4629V22.4629C27.5367 22.4629 27.542 22.4639 27.5438 22.4642C27.5459 22.4647 27.5478 22.4652 27.5502 22.4662C27.5557 22.4686 27.5662 22.4745 27.5776 22.4859C27.589 22.4973 27.5949 22.5078 27.5972 22.5133C27.5982 22.5157 27.5988 22.5176 27.5992 22.5197C27.5996 22.5215 27.6006 22.5267 27.6006 22.5371H37.6006ZM27.5264 19.947C28.9606 19.947 30.1165 21.1029 30.1165 22.5371H20.1165C20.1165 26.6257 23.4378 29.947 27.5264 29.947V19.947ZM30.1165 22.5371C30.1165 23.9714 28.9606 25.1272 27.5264 25.1272V15.1272C23.4378 15.1272 20.1165 18.4485 20.1165 22.5371H30.1165ZM27.5264 25.1272C26.0921 25.1272 24.9362 23.9714 24.9362 22.5371H34.9362C34.9362 18.4485 31.615 15.1272 27.5264 15.1272V25.1272ZM24.9362 22.5371C24.9362 21.1029 26.0921 19.947 27.5264 19.947V29.947C31.615 29.947 34.9362 26.6257 34.9362 22.5371H24.9362ZM31.0888 24.899H23.6845V34.899H31.0888V24.899ZM23.6845 24.899C21.9815 24.899 20.2532 25.5912 19.0251 26.9758C17.729 28.4369 17.201 30.4495 17.6736 32.4295L27.4003 30.1076C27.6884 31.3142 27.3661 32.6421 26.506 33.6117C25.7138 34.5048 24.6516 34.899 23.6845 34.899V24.899ZM17.537 31.2686V58.7102H27.537V31.2686H17.537ZM17.7029 57.4327C16.4535 62.1604 20.6533 65.1746 24.0227 64.9461L23.3463 54.969C24.4178 54.8964 25.5584 55.2898 26.4003 56.1812C27.2943 57.1276 27.748 58.5612 27.371 59.9878L17.7029 57.4327ZM23.6845 64.9576H31.0888V54.9576H23.6845V64.9576ZM30.7506 64.9461C34.5872 65.2062 37.421 62.0856 37.421 58.6728H27.421C27.421 56.7319 29.0623 54.8087 31.427 54.969L30.7506 64.9461ZM37.421 58.6728V31.2311H27.421V58.6728H37.421ZM37.421 31.2311C37.421 29.5517 36.7538 27.9411 35.5663 26.7536L28.4952 33.8247C27.8074 33.1368 27.421 32.2039 27.421 31.2311H37.421ZM35.5663 26.7536C34.3788 25.5661 32.7682 24.899 31.0888 24.899L31.0888 34.899C30.116 34.899 29.1831 34.5125 28.4952 33.8247L35.5663 26.7536ZM30.0211 52.4629H25.0167V62.4629H30.0211V52.4629ZM30.0167 57.4629V32.5658H20.0167V57.4629H30.0167ZM25.0167 37.5658H30.0211V27.5658H25.0167V37.5658ZM25.0211 32.5658V57.4629H35.0211V32.5658H25.0211Z" fill="white" mask="url(#path-1-inside-1_112_236)"/>
<mask id="path-3-inside-2_112_236" fill="white">
<path d="M40 0C17.9419 0 0 17.9419 0 40C0 62.0581 17.9419 80 40 80C62.0581 80 80 62.0581 80 40C80 17.9419 62.0581 0 40 0ZM40 77.3357C19.4137 77.3357 2.66434 60.5863 2.66434 40C2.66434 19.4137 19.4137 2.66434 40 2.66434C60.5863 2.66434 77.3357 19.4137 77.3357 40C77.3357 60.5863 60.5863 77.3357 40 77.3357Z"/>
</mask>
<path d="M40 0C17.9419 0 0 17.9419 0 40C0 62.0581 17.9419 80 40 80C62.0581 80 80 62.0581 80 40C80 17.9419 62.0581 0 40 0ZM40 77.3357C19.4137 77.3357 2.66434 60.5863 2.66434 40C2.66434 19.4137 19.4137 2.66434 40 2.66434C60.5863 2.66434 77.3357 19.4137 77.3357 40C77.3357 60.5863 60.5863 77.3357 40 77.3357Z" fill="white"/>
<path d="M40 -5C15.1805 -5 -5 15.1805 -5 40H5C5 20.7033 20.7033 5 40 5V-5ZM-5 40C-5 64.8196 15.1805 85 40 85V75C20.7033 75 5 59.2967 5 40H-5ZM40 85C64.8196 85 85 64.8196 85 40H75C75 59.2967 59.2967 75 40 75V85ZM85 40C85 15.1805 64.8196 -5 40 -5V5C59.2967 5 75 20.7033 75 40H85ZM40 72.3357C22.1752 72.3357 7.66434 57.8248 7.66434 40H-2.33566C-2.33566 63.3477 16.6523 82.3357 40 82.3357V72.3357ZM7.66434 40C7.66434 22.1752 22.1752 7.66434 40 7.66434V-2.33566C16.6523 -2.33566 -2.33566 16.6523 -2.33566 40H7.66434ZM40 7.66434C57.8248 7.66434 72.3357 22.1752 72.3357 40H82.3357C82.3357 16.6523 63.3477 -2.33566 40 -2.33566V7.66434ZM72.3357 40C72.3357 57.8248 57.8248 72.3357 40 72.3357V82.3357C63.3477 82.3357 82.3357 63.3477 82.3357 40H72.3357Z" fill="white" mask="url(#path-3-inside-2_112_236)"/>
<mask id="path-5-inside-3_112_236" fill="white">
<path d="M40 0C17.9419 0 0 17.9419 0 40C0 62.0581 17.9419 80 40 80C62.0581 80 80 62.0581 80 40C80 17.9419 62.0581 0 40 0ZM40 77.3357C19.4137 77.3357 2.66434 60.5863 2.66434 40C2.66434 19.4137 19.4137 2.66434 40 2.66434C60.5863 2.66434 77.3357 19.4137 77.3357 40C77.3357 60.5863 60.5863 77.3357 40 77.3357Z"/>
</mask>
<path d="M40 0C17.9419 0 0 17.9419 0 40C0 62.0581 17.9419 80 40 80C62.0581 80 80 62.0581 80 40C80 17.9419 62.0581 0 40 0ZM40 77.3357C19.4137 77.3357 2.66434 60.5863 2.66434 40C2.66434 19.4137 19.4137 2.66434 40 2.66434C60.5863 2.66434 77.3357 19.4137 77.3357 40C77.3357 60.5863 60.5863 77.3357 40 77.3357Z" fill="white"/>
<path d="M40 -5C15.1805 -5 -5 15.1805 -5 40H5C5 20.7033 20.7033 5 40 5V-5ZM-5 40C-5 64.8196 15.1805 85 40 85V75C20.7033 75 5 59.2967 5 40H-5ZM40 85C64.8196 85 85 64.8196 85 40H75C75 59.2967 59.2967 75 40 75V85ZM85 40C85 15.1805 64.8196 -5 40 -5V5C59.2967 5 75 20.7033 75 40H85ZM40 72.3357C22.1752 72.3357 7.66434 57.8248 7.66434 40H-2.33566C-2.33566 63.3477 16.6523 82.3357 40 82.3357V72.3357ZM7.66434 40C7.66434 22.1752 22.1752 7.66434 40 7.66434V-2.33566C16.6523 -2.33566 -2.33566 16.6523 -2.33566 40H7.66434ZM40 7.66434C57.8248 7.66434 72.3357 22.1752 72.3357 40H82.3357C82.3357 16.6523 63.3477 -2.33566 40 -2.33566V7.66434ZM72.3357 40C72.3357 57.8248 57.8248 72.3357 40 72.3357V82.3357C63.3477 82.3357 82.3357 63.3477 82.3357 40H72.3357Z" fill="white" mask="url(#path-5-inside-3_112_236)"/>
</svg>
