<svg width="72" height="72" viewBox="0 0 72 72" fill="none" xmlns="http://www.w3.org/2000/svg">
<path fill-rule="evenodd" clip-rule="evenodd" d="M36 3.27125C17.835 3.27125 3.129 18.5381 3.129 37.3392C3.129 51.1442 11.058 63.024 22.47 68.3676C23.664 68.9279 24.831 68.7056 25.743 67.9919C26.2474 67.5821 26.6539 67.0559 26.9308 66.4547C27.2077 65.8535 27.3474 65.1936 27.339 64.5266V62.7423L23.268 62.1663C23.2379 62.162 23.2078 62.1568 23.178 62.1506C20.934 61.6936 19.419 60.8703 18.309 59.6839C17.376 58.6853 16.806 57.4895 16.323 56.4752L16.155 56.1215C15.7086 55.1499 15.2211 54.1994 14.694 53.2729C14.289 52.603 13.974 52.2586 13.662 52.0426C12.87 51.4948 12.108 50.5651 12.108 49.4037C12.1053 49.0694 12.1739 48.7387 12.3088 48.4355C12.4437 48.1323 12.6415 47.8642 12.888 47.6507C13.3532 47.2664 13.9329 47.0647 14.526 47.081C15.192 47.081 15.819 47.2938 16.341 47.538C16.875 47.7884 17.406 48.1202 17.901 48.4646C19.107 49.3035 20.295 50.2959 21.3 51.5198C22.347 52.7908 23.088 53.5984 24.204 53.7643C25.122 53.9021 26.058 53.9052 26.787 53.8708C26.8883 53.2685 27.0554 52.6803 27.285 52.1177C26.3946 51.9009 25.5163 51.6334 24.654 51.3164C22.692 50.5901 20.505 49.46 19.035 47.7477C17.421 45.8632 16.422 44.1822 15.864 42.2163C15.321 40.3005 15.231 38.2251 15.231 35.6707C15.231 31.7577 16.854 28.4614 18.072 26.7116C17.604 25.1795 17.2677 23.6071 17.067 22.0129C16.9341 21.0075 16.9351 19.9877 17.07 18.9826C17.22 18.0654 17.595 16.9385 18.582 16.2592C19.533 15.5987 20.649 15.6269 21.519 15.7959C22.422 15.9743 23.361 16.3656 24.225 16.8133C25.632 17.5395 27.03 18.51 28.077 19.3332C29.883 18.7792 33.078 18.0654 35.967 17.9997H36.033C38.925 18.0654 41.976 18.7792 43.737 19.3301C44.787 18.51 46.182 17.5364 47.586 16.8133C48.45 16.3656 49.386 15.9743 50.292 15.7959C51.162 15.6269 52.278 15.5987 53.232 16.2561C54.216 16.9385 54.594 18.0654 54.741 18.9826C54.894 19.9374 54.858 21.0049 54.741 22.0129C54.5412 23.607 54.2059 25.1794 53.739 26.7116C54.957 28.4646 56.58 31.7609 56.58 35.6707C56.58 38.2251 56.49 40.3005 55.95 42.2132C55.389 44.1854 54.39 45.8632 52.776 47.7477C51.306 49.46 49.119 50.5901 47.157 51.3164C46.1155 51.6983 45.0513 52.0089 43.971 52.2461C44.34 53.4106 44.472 54.3528 44.472 54.8944V64.5673C44.472 66.0386 45.129 67.2938 46.062 68.0264C46.968 68.7432 48.132 68.9655 49.326 68.4208C60.846 63.1242 68.868 51.2131 68.868 37.3361C68.868 18.5381 54.168 3.27125 36 3.27125ZM28.428 57.0043C27.648 57.1201 28.425 57.0043 28.425 57.0043H28.416L28.392 57.0105L28.305 57.0231C27.8594 57.0777 27.4121 57.1163 26.964 57.1389C25.8963 57.1969 24.8257 57.1519 23.766 57.0043C21.393 56.6537 19.95 54.9007 19.017 53.7612L18.927 53.6548C18.622 53.2855 18.2943 52.9373 17.946 52.6123C18.255 53.2071 18.576 53.8708 18.921 54.5845L18.951 54.6471L19.104 54.9727C19.629 56.062 19.974 56.7883 20.547 57.3956C21.105 57.9903 21.975 58.5663 23.733 58.9295L29.115 59.6901C29.4909 59.7432 29.8356 59.9369 30.0849 60.2351C30.3343 60.5333 30.4715 60.9159 30.471 61.3117V64.5266C30.471 67.0309 29.346 69.2629 27.621 70.6152C26.7153 71.3373 25.6379 71.7877 24.505 71.9179C23.3721 72.0481 22.2266 71.8531 21.192 71.3539C8.706 65.5095 0 52.4965 0 37.3392C0 16.7037 16.131 0 36 0C55.869 0 72 16.7037 72 37.3392C72 52.5748 63.183 65.6222 50.589 71.4166C49.5536 71.9062 48.4101 72.0929 47.2808 71.9567C46.1516 71.8205 45.0791 71.3665 44.178 70.6433C43.2871 69.9276 42.5672 69.0063 42.0748 67.9515C41.5824 66.8968 41.3309 65.7373 41.34 64.5641V54.8913C41.34 54.6721 41.193 53.4075 40.374 51.7077C40.261 51.472 40.204 51.2113 40.208 50.9478C40.2119 50.6842 40.2767 50.4256 40.3968 50.1937C40.5169 49.9618 40.6888 49.7636 40.8978 49.6157C41.1069 49.4678 41.3471 49.3747 41.598 49.3442C43.136 49.1431 44.6488 48.7694 46.11 48.2298C47.892 47.5724 49.491 46.6709 50.442 45.5627C51.855 43.9161 52.56 42.6515 52.947 41.2835C53.349 39.8654 53.451 38.2157 53.451 35.6707C53.451 32.0989 51.651 29.0969 50.823 28.1296C50.635 27.911 50.5069 27.6437 50.452 27.3556C50.3971 27.0676 50.4175 26.7694 50.511 26.4924C51.0443 24.9153 51.4212 23.2852 51.636 21.6278C51.732 20.767 51.738 20.047 51.654 19.5273C51.6352 19.3373 51.5801 19.1532 51.492 18.9858C51.2855 18.9485 51.0737 18.9581 50.871 19.0139C50.361 19.1141 49.71 19.3645 48.972 19.7465C47.502 20.504 45.972 21.6247 45.024 22.4261C44.8149 22.603 44.5655 22.7206 44.3001 22.7672C44.0346 22.8138 43.7621 22.788 43.509 22.6921C41.08 21.8631 38.5534 21.3859 36 21.2741C32.979 21.3492 29.493 22.2445 28.302 22.6921C28.0489 22.788 27.7764 22.8138 27.5109 22.7672C27.2455 22.7206 26.9961 22.603 26.787 22.4261C25.561 21.3962 24.2383 20.4984 22.839 19.7465C22.2381 19.4172 21.5988 19.171 20.937 19.0139C20.7353 18.9585 20.5246 18.9489 20.319 18.9858C20.2308 19.1532 20.1757 19.3373 20.157 19.5273C20.073 20.047 20.079 20.767 20.175 21.6278C20.3912 23.2849 20.7681 24.9148 21.3 26.4924C21.489 27.0559 21.372 27.682 20.988 28.1296C20.16 29.0969 18.36 32.0989 18.36 35.6707C18.36 38.2126 18.462 39.8654 18.864 41.2835C19.254 42.6515 19.956 43.913 21.366 45.5627C22.32 46.6709 23.916 47.5724 25.701 48.2298C27.1613 48.7691 28.673 49.1427 30.21 49.3442C30.5262 49.3796 30.8246 49.5147 31.0655 49.7314C31.3063 49.9481 31.4783 50.2361 31.5584 50.5573C31.6385 50.8784 31.623 51.2174 31.514 51.5292C31.4049 51.8409 31.2075 52.1106 30.948 52.3024C30.453 52.6718 30.126 53.3355 29.943 54.1024C29.8485 54.4973 29.7922 54.901 29.775 55.3076V55.3671C29.7788 55.764 29.6443 56.1488 29.3966 56.45C29.1488 56.7512 28.8046 56.9481 28.428 57.0043V57.0043Z" fill="white"/>
</svg>
