<svg width="25" height="25" viewBox="0 0 25 25" fill="none" xmlns="http://www.w3.org/2000/svg">
<path d="M12.5 22.5C15.1522 22.5 17.6957 21.4464 19.5711 19.5711C21.4464 17.6957 22.5 15.1522 22.5 12.5C22.5 9.84783 21.4464 7.3043 19.5711 5.42893C17.6957 3.55357 15.1522 2.5 12.5 2.5C9.84783 2.5 7.3043 3.55357 5.42893 5.42893C3.55357 7.3043 2.5 9.84783 2.5 12.5C2.5 15.1522 3.55357 17.6957 5.42893 19.5711C7.3043 21.4464 9.84783 22.5 12.5 22.5ZM12.5 25C5.59625 25 0 19.4037 0 12.5C0 5.59625 5.59625 0 12.5 0C19.4037 0 25 5.59625 25 12.5C25 19.4037 19.4037 25 12.5 25Z" fill="white"/>
<path d="M18.5 8.38378C18.04 8.58378 17.5462 8.72127 17.0275 8.78128C17.5575 8.46877 17.9625 7.97377 18.155 7.38502C17.65 7.67936 17.0989 7.88643 16.525 7.99753C16.2836 7.74449 15.9932 7.54328 15.6715 7.40617C15.3497 7.26906 15.0035 7.19892 14.6538 7.20003C13.2375 7.20003 12.09 8.33128 12.09 9.72503C12.09 9.92253 12.1125 10.115 12.1563 10.3C11.1404 10.2518 10.1458 9.99233 9.23581 9.53821C8.32585 9.08409 7.52053 8.44527 6.87125 7.66252C6.6432 8.0464 6.52314 8.48477 6.52375 8.93128C6.52375 9.80628 6.9775 10.5813 7.665 11.0325C7.25806 11.0198 6.85983 10.9114 6.5025 10.7163V10.7475C6.50636 11.3344 6.7135 11.9017 7.08865 12.353C7.46379 12.8042 7.98375 13.1115 8.56 13.2225C8.1817 13.3226 7.78586 13.3371 7.40125 13.265C7.56891 13.7699 7.88959 14.21 8.31878 14.5242C8.74796 14.8385 9.26435 15.0114 9.79625 15.0188C8.8837 15.722 7.7633 16.1019 6.61125 16.0988C6.405 16.0988 6.20125 16.0863 6 16.0638C7.17559 16.8079 8.5387 17.202 9.93 17.2C14.6475 17.2 17.2262 13.3525 17.2262 10.015L17.2175 9.68752C17.7204 9.33413 18.1549 8.89238 18.5 8.38378V8.38378Z" fill="white"/>
</svg>
