<svg width="52" height="52" viewBox="0 0 52 52" fill="none" xmlns="http://www.w3.org/2000/svg">
<path fill-rule="evenodd" clip-rule="evenodd" d="M25.8333 2.34742C12.7983 2.34742 2.24535 13.3028 2.24535 26.7943C2.24535 36.7007 7.93514 45.2256 16.1243 49.0601C16.9811 49.4622 17.8185 49.3027 18.473 48.7905C18.8349 48.4964 19.1267 48.1188 19.3254 47.6874C19.5241 47.256 19.6243 46.7824 19.6183 46.3038V45.0234L16.6969 44.6101C16.6753 44.607 16.6538 44.6033 16.6324 44.5988C15.0221 44.2709 13.9349 43.6801 13.1384 42.8287C12.4689 42.1121 12.0599 41.254 11.7133 40.5262L11.5927 40.2724C11.2724 39.5752 10.9226 38.8931 10.5443 38.2282C10.2537 37.7475 10.0276 37.5004 9.80375 37.3454C9.23542 36.9523 8.68861 36.2851 8.68861 35.4517C8.68667 35.2119 8.73588 34.9745 8.83269 34.757C8.9295 34.5394 9.07148 34.347 9.24833 34.1938C9.58213 33.918 9.99814 33.7733 10.4238 33.7849C10.9017 33.7849 11.3516 33.9377 11.7262 34.1129C12.1094 34.2926 12.4904 34.5307 12.8456 34.7778C13.711 35.3798 14.5635 36.0919 15.2847 36.9703C16.036 37.8823 16.5678 38.4618 17.3686 38.5809C18.0274 38.6797 18.699 38.682 19.2222 38.6573C19.2949 38.2251 19.4148 37.803 19.5795 37.3993C18.9406 37.2437 18.3103 37.0518 17.6915 36.8242C16.2836 36.3031 14.7142 35.4922 13.6594 34.2634C12.5012 32.9111 11.7843 31.7048 11.3839 30.2941C10.9942 28.9194 10.9297 27.4301 10.9297 25.597C10.9297 22.7891 12.0943 20.4237 12.9683 19.168C12.6325 18.0687 12.3912 16.9403 12.2472 15.7963C12.1518 15.0748 12.1525 14.3431 12.2493 13.6218C12.3569 12.9636 12.626 12.1549 13.3343 11.6675C14.0167 11.1935 14.8176 11.2137 15.4419 11.335C16.0899 11.4631 16.7637 11.7439 17.3837 12.0651C18.3933 12.5862 19.3965 13.2826 20.1478 13.8734C21.4438 13.4758 23.7365 12.9636 25.8097 12.9165H25.857C27.9323 12.9636 30.1217 13.4758 31.3854 13.8711C32.1388 13.2826 33.1399 12.584 34.1474 12.0651C34.7674 11.7439 35.439 11.4631 36.0892 11.335C36.7135 11.2137 37.5143 11.1935 38.1989 11.6652C38.905 12.1549 39.1763 12.9636 39.2817 13.6218C39.3915 14.3069 39.3657 15.0729 39.2817 15.7963C39.1383 16.9402 38.8977 18.0686 38.5627 19.168C39.4367 20.426 40.6014 22.7914 40.6014 25.597C40.6014 27.4301 40.5368 28.9194 40.1493 30.2919C39.7467 31.7071 39.0299 32.9111 37.8717 34.2634C36.8168 35.4922 35.2474 36.3031 33.8395 36.8242C33.0922 37.0983 32.3285 37.3212 31.5533 37.4914C31.8181 38.327 31.9128 39.0032 31.9128 39.3918V46.333C31.9128 47.3888 32.3842 48.2896 33.0538 48.8152C33.7039 49.3296 34.5392 49.4891 35.396 49.0982C43.6626 45.2974 49.4192 36.7501 49.4192 26.7921C49.4192 13.3028 38.8706 2.34742 25.8333 2.34742ZM20.3997 40.9058C19.84 40.989 20.3976 40.9058 20.3976 40.9058H20.3911L20.3739 40.9103L20.3115 40.9193C19.9917 40.9585 19.6707 40.9863 19.3492 41.0024C18.583 41.0441 17.8148 41.0118 17.0543 40.9058C15.3515 40.6543 14.316 39.3963 13.6465 38.5786L13.5819 38.5023C13.363 38.2373 13.1278 37.9874 12.8779 37.7542C13.0997 38.181 13.33 38.6573 13.5776 39.1694L13.5991 39.2144L13.7089 39.448C14.0856 40.2297 14.3332 40.7508 14.7444 41.1866C15.1448 41.6134 15.7691 42.0268 17.0306 42.2873L20.8927 42.8332C21.1624 42.8713 21.4098 43.0102 21.5887 43.2243C21.7677 43.4383 21.8661 43.7128 21.8658 43.9968V46.3038C21.8658 48.1009 21.0585 49.7025 19.8206 50.6729C19.1707 51.1911 18.3976 51.5143 17.5846 51.6077C16.7716 51.7012 15.9496 51.5612 15.2072 51.2031C6.24736 47.0091 0 37.6711 0 26.7943C0 11.9865 11.5755 0 25.8333 0C40.0912 0 51.6667 11.9865 51.6667 26.7943C51.6667 37.7273 45.3397 47.09 36.3023 51.248C35.5593 51.5994 34.7387 51.7333 33.9284 51.6356C33.118 51.5379 32.3484 51.2121 31.7018 50.6931C31.0625 50.1796 30.5459 49.5184 30.1925 48.7615C29.8392 48.0046 29.6587 47.1726 29.6653 46.3308V39.3896C29.6653 39.2323 29.5598 38.3248 28.9721 37.105C28.891 36.9359 28.8501 36.7489 28.8529 36.5597C28.8558 36.3706 28.9023 36.185 28.9884 36.0186C29.0746 35.8522 29.1979 35.71 29.348 35.6038C29.498 35.4977 29.6704 35.4309 29.8504 35.4091C30.9541 35.2647 32.0396 34.9966 33.0882 34.6094C34.3669 34.1376 35.5144 33.4907 36.1968 32.6955C37.2108 31.5139 37.7167 30.6064 37.9944 29.6247C38.2828 28.6071 38.356 27.4233 38.356 25.597C38.356 23.034 37.0644 20.8797 36.4702 20.1856C36.3353 20.0287 36.2434 19.8369 36.204 19.6302C36.1646 19.4235 36.1792 19.2095 36.2463 19.0108C36.629 17.879 36.8995 16.7093 37.0536 15.52C37.1225 14.9022 37.1268 14.3856 37.0665 14.0127C37.053 13.8763 37.0135 13.7442 36.9503 13.624C36.8021 13.5973 36.6501 13.6042 36.5047 13.6443C36.1387 13.7161 35.6715 13.8959 35.1419 14.1699C34.0871 14.7135 32.9892 15.5177 32.3089 16.0928C32.1589 16.2198 31.9799 16.3041 31.7894 16.3376C31.5989 16.371 31.4033 16.3525 31.2217 16.2837C29.4787 15.6888 27.6656 15.3464 25.8333 15.2661C23.6655 15.32 21.164 15.9625 20.3093 16.2837C20.1277 16.3525 19.9321 16.371 19.7416 16.3376C19.5511 16.3041 19.3722 16.2198 19.2222 16.0928C18.3424 15.3537 17.3932 14.7095 16.3891 14.1699C15.9579 13.9336 15.4991 13.7569 15.0242 13.6443C14.8795 13.6045 14.7283 13.5976 14.5808 13.624C14.5175 13.7442 14.478 13.8763 14.4645 14.0127C14.4042 14.3856 14.4085 14.9022 14.4774 15.52C14.6326 16.7091 14.9031 17.8787 15.2847 19.0108C15.4203 19.4151 15.3364 19.8644 15.0608 20.1856C14.4667 20.8797 13.175 23.034 13.175 25.597C13.175 27.4211 13.2482 28.6071 13.5367 29.6247C13.8165 30.6064 14.3203 31.5117 15.3321 32.6955C16.0167 33.4907 17.1619 34.1376 18.4428 34.6094C19.4908 34.9963 20.5756 35.2644 21.6785 35.4091C21.9054 35.4345 22.1195 35.5314 22.2924 35.6869C22.4652 35.8424 22.5886 36.0491 22.6461 36.2795C22.7036 36.51 22.6924 36.7533 22.6142 36.977C22.536 37.2007 22.3943 37.3942 22.2081 37.5318C21.8528 37.7969 21.6182 38.2731 21.4869 38.8235C21.4191 39.1068 21.3787 39.3966 21.3663 39.6883V39.731C21.3691 40.0158 21.2726 40.292 21.0947 40.5081C20.9169 40.7242 20.6699 40.8656 20.3997 40.9058V40.9058Z" fill="white"/>
</svg>
