<svg width="52" height="52" viewBox="0 0 52 52" fill="none" xmlns="http://www.w3.org/2000/svg">
<path d="M50.1667 25.9893C50.1667 37.6037 42.1362 47.3227 31.3689 49.841V34.9983H35.8835H37.1723L37.3664 33.7242L38.5109 26.21L38.7738 24.4841H37.028H31.3689V21.1106C31.3689 20.299 31.5695 19.6807 31.9089 19.2852C32.2118 18.9322 32.8035 18.5481 34.075 18.5481H37.3407H38.8407V17.0481V10.6567V9.39163L37.5937 9.17818L37.3407 10.6567C37.5937 9.17818 37.5936 9.17816 37.5935 9.17814L37.5932 9.17808L37.5923 9.17793L37.5897 9.1775L37.5814 9.17609L37.5522 9.17121C37.5272 9.16706 37.4913 9.16117 37.4453 9.15379C37.3532 9.13904 37.2204 9.1183 37.053 9.09358C36.7185 9.04417 36.2444 8.97867 35.6796 8.91322C34.5566 8.78309 33.0468 8.64983 31.5534 8.64983C28.2988 8.64983 25.4426 9.64749 23.3994 11.7051C21.3557 13.763 20.2978 16.7073 20.2978 20.2633V24.4893H15.2354H13.7354V25.9893V33.5035V35.0035H15.2354H20.2978V49.8447C9.5297 47.3177 1.5 37.6004 1.5 25.9893C1.5 12.4565 12.4037 1.5 25.8333 1.5C39.263 1.5 50.1667 12.4565 50.1667 25.9893Z" fill="#0F1221" stroke="white" stroke-width="3"/>
</svg>
