<svg width="81" height="80" viewBox="0 0 81 80" fill="none" xmlns="http://www.w3.org/2000/svg">
<path d="M78.5 40.2415C78.5 58.0565 66.0679 73.0077 49.3267 76.9579V54.3684H56.2561H58.4001L58.7269 52.2494L60.5212 40.6145L60.9655 37.7334H58.0504H49.3267V32.6874C49.3267 31.4631 49.6329 30.5573 50.1274 29.9882C50.5649 29.4848 51.4499 28.897 53.4208 28.897H58.5405H61.0405V26.397V16.5007V14.3879L58.9573 14.0356L58.5405 16.5007C58.9573 14.0356 58.9571 14.0356 58.9568 14.0356L58.9563 14.0355L58.9549 14.0352L58.9508 14.0346L58.9377 14.0324L58.8915 14.0247C58.8522 14.0183 58.7957 14.0091 58.7232 13.9977C58.5784 13.9748 58.3698 13.9426 58.1068 13.9042C57.5814 13.8276 56.8368 13.726 55.95 13.6245C54.187 13.4227 51.8151 13.2159 49.4676 13.2159C44.3438 13.2159 39.8286 14.7668 36.5898 17.988C33.3465 21.2136 31.6733 25.8256 31.6733 31.3754V37.7415H23.8852H21.3852V40.2415V51.8764V54.3764H23.8852H31.6733V76.9635C14.9308 72.9999 2.5 58.0513 2.5 40.2415C2.5 19.4137 19.4993 2.5 40.5 2.5C61.5007 2.5 78.5 19.4137 78.5 40.2415Z" fill="#0F1221" stroke="white" stroke-width="5"/>
</svg>
