<svg width="72" height="72" viewBox="0 0 72 72" fill="none" xmlns="http://www.w3.org/2000/svg">
<mask id="path-1-inside-1_112_201" fill="white">
<path d="M43.892 26.9113C42.3697 26.9113 41.2426 27.2952 40.3602 27.7802C40.2188 27.2772 39.754 26.909 39.2062 27.019H32.5064C31.8441 26.909 31.3074 27.4456 31.5118 28.1416V52.8392C31.3074 53.4678 31.8441 54.0067 32.5064 53.9618H39.2062C39.8685 54.0067 40.4051 53.4678 40.4051 52.8055L40.4029 37.8792C40.4006 37.8725 40.3759 37.1585 40.8272 36.6668C41.1887 36.2761 41.8106 36.0763 42.6705 36.0763C44.103 36.0763 44.7407 36.6623 44.9786 37.9735V52.8055C44.7429 53.4678 45.2795 54.0067 45.9418 53.9618H53.0031C53.6654 54.0067 54.202 53.4678 53.964 52.8055V37.4751C54.1998 29.6796 48.6473 26.9113 43.892 26.9113V26.9113ZM51.8019 51.7166H47.1408V37.9735C47.1408 35.3219 45.4277 33.6784 42.6728 33.6784C41.1146 33.6784 39.9022 34.1364 39.067 35.039C37.9062 36.2963 37.996 37.8904 38.2452 38.2452V51.7166H33.7053V29.3092H38.0072V30.0636C38.0054 30.2883 38.0671 30.509 38.1852 30.7002C38.3032 30.8915 38.4728 31.0455 38.6744 31.1447C38.8761 31.2439 39.1017 31.2842 39.3252 31.261C39.5487 31.2377 39.7612 31.1519 39.9381 31.0133L40.2524 30.7708C41.1618 30.0546 42.1025 29.3114 43.8942 29.3114C45.7488 29.3114 51.8041 29.9019 51.8041 37.4773V51.7166H51.8019ZM24.7738 15.7166C22.2547 15.7166 20.207 17.7642 20.207 20.2833C20.207 22.8025 22.2547 24.8501 24.7738 24.8501C27.293 24.8501 29.3406 22.8025 29.3406 20.2833C29.3406 17.7642 27.293 15.7166 24.7738 15.7166ZM24.7738 22.4522C23.5794 22.4522 22.6049 21.4778 22.6049 20.2833C22.6049 19.0889 23.5794 18.1145 24.7738 18.1145C25.9683 18.1145 26.9427 19.0889 26.9427 20.2833C26.9427 21.4778 25.9683 22.4522 24.7738 22.4522ZM27.98 26.909H21.3162C20.6538 26.909 20.1172 27.4456 20.2834 28.1416V52.8392C20.1172 53.4678 20.6538 54.0067 21.3162 53.9618H27.98C28.6424 54.0067 29.179 53.4678 29.179 52.8055V28.108C29.179 27.79 29.0527 27.485 28.8278 27.2602C28.603 27.0353 28.298 26.909 27.98 26.909ZM27.0191 51.7166H22.5151V29.3092H27.0191V51.7166Z"/>
</mask>
<path d="M43.892 26.9113C42.3697 26.9113 41.2426 27.2952 40.3602 27.7802C40.2188 27.2772 39.754 26.909 39.2062 27.019H32.5064C31.8441 26.909 31.3074 27.4456 31.5118 28.1416V52.8392C31.3074 53.4678 31.8441 54.0067 32.5064 53.9618H39.2062C39.8685 54.0067 40.4051 53.4678 40.4051 52.8055L40.4029 37.8792C40.4006 37.8725 40.3759 37.1585 40.8272 36.6668C41.1887 36.2761 41.8106 36.0763 42.6705 36.0763C44.103 36.0763 44.7407 36.6623 44.9786 37.9735V52.8055C44.7429 53.4678 45.2795 54.0067 45.9418 53.9618H53.0031C53.6654 54.0067 54.202 53.4678 53.964 52.8055V37.4751C54.1998 29.6796 48.6473 26.9113 43.892 26.9113V26.9113ZM51.8019 51.7166H47.1408V37.9735C47.1408 35.3219 45.4277 33.6784 42.6728 33.6784C41.1146 33.6784 39.9022 34.1364 39.067 35.039C37.9062 36.2963 37.996 37.8904 38.2452 38.2452V51.7166H33.7053V29.3092H38.0072V30.0636C38.0054 30.2883 38.0671 30.509 38.1852 30.7002C38.3032 30.8915 38.4728 31.0455 38.6744 31.1447C38.8761 31.2439 39.1017 31.2842 39.3252 31.261C39.5487 31.2377 39.7612 31.1519 39.9381 31.0133L40.2524 30.7708C41.1618 30.0546 42.1025 29.3114 43.8942 29.3114C45.7488 29.3114 51.8041 29.9019 51.8041 37.4773V51.7166H51.8019ZM24.7738 15.7166C22.2547 15.7166 20.207 17.7642 20.207 20.2833C20.207 22.8025 22.2547 24.8501 24.7738 24.8501C27.293 24.8501 29.3406 22.8025 29.3406 20.2833C29.3406 17.7642 27.293 15.7166 24.7738 15.7166ZM24.7738 22.4522C23.5794 22.4522 22.6049 21.4778 22.6049 20.2833C22.6049 19.0889 23.5794 18.1145 24.7738 18.1145C25.9683 18.1145 26.9427 19.0889 26.9427 20.2833C26.9427 21.4778 25.9683 22.4522 24.7738 22.4522ZM27.98 26.909H21.3162C20.6538 26.909 20.1172 27.4456 20.2834 28.1416V52.8392C20.1172 53.4678 20.6538 54.0067 21.3162 53.9618H27.98C28.6424 54.0067 29.179 53.4678 29.179 52.8055V28.108C29.179 27.79 29.0527 27.485 28.8278 27.2602C28.603 27.0353 28.298 26.909 27.98 26.909ZM27.0191 51.7166H22.5151V29.3092H27.0191V51.7166Z" fill="white"/>
<path d="M40.3602 27.7802L35.547 29.1339L37.2514 35.1942L42.7685 32.162L40.3602 27.7802ZM39.2062 27.019V32.019H39.7032L40.1906 31.9212L39.2062 27.019ZM32.5064 27.019L31.6871 31.9515L32.094 32.019H32.5064V27.019ZM31.5118 28.1416H36.5118V27.4229L36.3093 26.7333L31.5118 28.1416ZM31.5118 52.8392L36.2669 54.3846L36.5118 53.6313V52.8392H31.5118ZM32.5064 53.9618V48.9618H32.3371L32.1682 48.9732L32.5064 53.9618ZM39.2062 53.9618L39.5444 48.9732L39.3755 48.9618H39.2062V53.9618ZM40.4051 52.8055L45.4051 52.8055L45.4051 52.8047L40.4051 52.8055ZM40.4029 37.8792L45.4029 37.8785L45.4027 37.0675L45.1463 36.2981L40.4029 37.8792ZM40.8272 36.6668L37.1572 33.271L37.1504 33.2784L37.1435 33.2859L40.8272 36.6668ZM44.9786 37.9735H49.9786V37.5234L49.8983 37.0806L44.9786 37.9735ZM44.9786 52.8055L49.6892 54.4821L49.9786 53.6688V52.8055H44.9786ZM45.9418 53.9618V48.9618H45.7725L45.6036 48.9732L45.9418 53.9618ZM53.0031 53.9618L53.3413 48.9732L53.1724 48.9618H53.0031V53.9618ZM53.964 52.8055H48.964V53.6765L49.2586 54.4963L53.964 52.8055ZM53.964 37.4751L48.9663 37.3239L48.964 37.3995V37.4751H53.964ZM47.1408 51.7166H42.1408V56.7166H47.1408V51.7166ZM39.067 35.039L35.3971 31.643L35.3932 31.6473L39.067 35.039ZM38.2452 38.2452H43.2452V36.6644L42.3365 35.3709L38.2452 38.2452ZM38.2452 51.7166V56.7166H43.2452V51.7166H38.2452ZM33.7053 51.7166H28.7053V56.7166H33.7053V51.7166ZM33.7053 29.3092V24.3092H28.7053V29.3092H33.7053ZM38.0072 29.3092H43.0072V24.3092H38.0072V29.3092ZM38.0072 30.0636L43.0071 30.1026L43.0072 30.0831V30.0636H38.0072ZM39.9381 31.0133L36.8841 27.0544L36.8696 27.0656L36.8552 27.0768L39.9381 31.0133ZM40.2524 30.7708L43.3065 34.7297L43.3264 34.7143L43.3463 34.6987L40.2524 30.7708ZM51.8041 51.7166V56.7166H56.8041V51.7166H51.8041ZM27.98 26.909L27.98 31.909L27.98 26.909ZM20.2834 28.1416H25.2834V27.5531L25.1467 26.9807L20.2834 28.1416ZM20.2834 52.8392L25.1174 54.1167L25.2834 53.4887V52.8392H20.2834ZM21.3162 53.9618V48.9618H21.1469L20.978 48.9732L21.3162 53.9618ZM27.98 53.9618L28.3182 48.9732L28.1493 48.9618H27.98V53.9618ZM27.0191 51.7166V56.7166H32.0191V51.7166H27.0191ZM22.5151 51.7166H17.5151V56.7166H22.5151V51.7166ZM22.5151 29.3092V24.3092H17.5151V29.3092H22.5151ZM27.0191 29.3092H32.0191V24.3092H27.0191V29.3092ZM43.892 21.9113C41.4508 21.9113 39.5017 22.5466 37.9519 23.3984L42.7685 32.162C42.9032 32.0879 43.0346 32.0327 43.1846 31.9923C43.3342 31.9521 43.5595 31.9113 43.892 31.9113V21.9113ZM45.1735 26.4264C44.4764 23.9479 41.849 21.3885 38.2217 22.1169L40.1906 31.9212C37.659 32.4296 35.9612 30.6066 35.547 29.1339L45.1735 26.4264ZM39.2062 22.019H32.5064V32.019H39.2062V22.019ZM33.3257 22.0866C31.4492 21.7749 29.4216 22.3572 28.0097 23.8871C26.5483 25.4707 26.1505 27.6298 26.7142 29.55L36.3093 26.7333C36.6687 27.9574 36.4371 29.5003 35.3585 30.6691C34.3294 31.7842 32.9012 32.1531 31.6871 31.9515L33.3257 22.0866ZM26.5118 28.1416V52.8392H36.5118V28.1416H26.5118ZM26.7566 51.2937C26.068 53.4125 26.6536 55.5726 28.0074 57.0416C29.2828 58.4254 31.0881 59.0694 32.8446 58.9503L32.1682 48.9732C33.2623 48.8991 34.4682 49.2961 35.3608 50.2646C36.3318 51.3182 36.7512 52.8946 36.2669 54.3846L26.7566 51.2937ZM32.5064 58.9618H39.2062V48.9618H32.5064V58.9618ZM38.868 58.9503C42.6309 59.2055 45.4051 56.1447 45.4051 52.8055H35.4051C35.4051 50.7909 37.1061 48.8079 39.5444 48.9732L38.868 58.9503ZM45.4051 52.8047L45.4029 37.8785L35.4029 37.88L35.4051 52.8062L45.4051 52.8047ZM45.1463 36.2981C45.2451 36.5945 45.2931 36.8341 45.3085 36.9125C45.3301 37.0222 45.3438 37.1111 45.3513 37.1628C45.3663 37.2668 45.3748 37.349 45.3785 37.387C45.3867 37.4693 45.3909 37.5339 45.3927 37.5612C45.3967 37.6245 45.3985 37.6742 45.3994 37.7003C45.4014 37.7591 45.4019 37.8074 45.4019 37.8433C45.402 37.9179 45.3999 37.9856 45.3962 38.048C45.3891 38.1693 45.3739 38.3108 45.3407 38.4705C45.2869 38.7298 45.1145 39.3901 44.5109 40.0477L37.1435 33.2859C36.0887 34.4352 35.7029 35.6983 35.5492 36.4392C35.4661 36.8397 35.4292 37.1917 35.4133 37.4641C35.4052 37.6021 35.4019 37.7306 35.4019 37.8474C35.402 37.9044 35.4028 37.9693 35.4052 38.0394C35.4063 38.0713 35.4084 38.1255 35.4126 38.1919C35.4144 38.2207 35.4187 38.2865 35.4269 38.3697C35.4307 38.4082 35.4393 38.4908 35.4544 38.595C35.4619 38.6469 35.4755 38.7359 35.4972 38.8457C35.5126 38.9242 35.5606 39.1639 35.6595 39.4603L45.1463 36.2981ZM44.4972 40.0626C43.9771 40.6246 43.4211 40.8797 43.0884 40.9864C42.7741 41.0871 42.6031 41.0763 42.6705 41.0763V31.0763C41.2433 31.0763 38.9089 31.3779 37.1572 33.271L44.4972 40.0626ZM42.6705 41.0763C42.7755 41.0763 41.939 41.1056 41.0499 40.3561C40.1657 39.6108 40.0432 38.7792 40.059 38.8665L49.8983 37.0806C49.6761 35.8566 49.1157 34.0764 47.4952 32.7103C45.8696 31.34 43.9981 31.0763 42.6705 31.0763V41.0763ZM39.9786 37.9735V52.8055H49.9786V37.9735H39.9786ZM40.2681 51.1289C39.5427 53.1669 39.9792 55.3802 41.3788 56.962C42.6772 58.4296 44.5319 59.0689 46.2801 58.9503L45.6036 48.9732C46.6894 48.8996 47.9446 49.2919 48.8682 50.3357C49.8928 51.4937 50.1788 53.1064 49.6892 54.4821L40.2681 51.1289ZM45.9418 58.9618H53.0031V48.9618H45.9418V58.9618ZM52.6649 58.9503C54.4121 59.0688 56.2688 58.4302 57.5684 56.9593C58.9706 55.372 59.4019 53.1529 58.6695 51.1147L49.2586 54.4963C48.7642 53.1205 49.0462 51.5019 50.074 50.3385C50.9992 49.2913 52.2564 48.8997 53.3413 48.9732L52.6649 58.9503ZM58.964 52.8055V37.4751H48.964V52.8055H58.964ZM58.9618 37.6262C59.1199 32.397 57.2851 28.2309 54.0452 25.4664C50.973 22.845 47.144 21.9113 43.892 21.9113V31.9113C45.3953 31.9113 46.7202 32.3618 47.5542 33.0734C48.2204 33.6419 49.0439 34.7577 48.9663 37.3239L58.9618 37.6262ZM51.8019 46.7166H47.1408V56.7166H51.8019V46.7166ZM52.1408 51.7166V37.9735H42.1408V51.7166H52.1408ZM52.1408 37.9735C52.1408 35.5425 51.3281 33.0746 49.404 31.226C47.5031 29.3997 45.04 28.6784 42.6728 28.6784V38.6784C42.868 38.6784 42.914 38.7076 42.853 38.6859C42.7838 38.6612 42.6355 38.5906 42.4758 38.4371C42.314 38.2817 42.2151 38.1126 42.1662 37.9861C42.1209 37.8688 42.1408 37.848 42.1408 37.9735H52.1408ZM42.6728 28.6784C40.1151 28.6784 37.4166 29.4607 35.3971 31.643L42.7368 38.4349C42.6766 38.5 42.6064 38.5598 42.5321 38.6092C42.4585 38.6581 42.3984 38.6853 42.3644 38.6981C42.2997 38.7225 42.3764 38.6784 42.6728 38.6784V28.6784ZM35.3932 31.6473C34.0379 33.1154 33.4029 34.7941 33.1845 36.2269C33.0761 36.9375 33.0586 37.6568 33.1383 38.3459C33.1946 38.8324 33.369 40.0022 34.1539 41.1194L42.3365 35.3709C42.7246 35.9234 42.8878 36.412 42.9498 36.6181C43.0259 36.8714 43.0576 37.0715 43.0721 37.1969C43.1012 37.448 43.0871 37.6236 43.0702 37.7342C43.0347 37.9669 42.9353 38.2199 42.7407 38.4307L35.3932 31.6473ZM33.2452 38.2452V51.7166H43.2452V38.2452H33.2452ZM38.2452 46.7166H33.7053V56.7166H38.2452V46.7166ZM38.7053 51.7166V29.3092H28.7053V51.7166H38.7053ZM33.7053 34.3092H38.0072V24.3092H33.7053V34.3092ZM33.0072 29.3092V30.0636H43.0072V29.3092H33.0072ZM33.0074 30.0245C32.9983 31.19 33.3182 32.3344 33.9302 33.3261L42.4401 28.0743C42.8161 28.6836 43.0126 29.3866 43.0071 30.1026L33.0074 30.0245ZM33.9302 33.3261C34.5423 34.3179 35.4218 35.117 36.4676 35.6314L40.8812 26.6581C41.5238 26.9741 42.0641 27.465 42.4401 28.0743L33.9302 33.3261ZM36.4676 35.6314C37.5135 36.1458 38.6832 36.3547 39.8424 36.2341L38.808 26.2878C39.5201 26.2137 40.2387 26.3421 40.8812 26.6581L36.4676 35.6314ZM39.8424 36.2341C41.0017 36.1136 42.1034 35.6684 43.021 34.9498L36.8552 27.0768C37.419 26.6353 38.0958 26.3618 38.808 26.2878L39.8424 36.2341ZM42.9921 34.9722L43.3065 34.7297L37.1984 26.8119L36.8841 27.0544L42.9921 34.9722ZM43.3463 34.6987C43.592 34.5051 43.7091 34.4145 43.8153 34.3404C43.9039 34.2785 43.9272 34.27 43.9084 34.279C43.8831 34.2912 43.8447 34.3054 43.8096 34.3134C43.7768 34.3209 43.7971 34.3114 43.8942 34.3114V24.3114C40.3075 24.3114 38.2119 26.0133 37.1586 26.8429L43.3463 34.6987ZM43.8942 34.3114C44.455 34.3114 45.3145 34.4298 45.8885 34.7897C46.1037 34.9246 46.2734 35.0883 46.4156 35.3554C46.5646 35.6352 46.8041 36.2587 46.8041 37.4773H56.8041C56.8041 32.0928 54.5074 28.3907 51.2007 26.3174C48.2834 24.4882 45.188 24.3114 43.8942 24.3114V34.3114ZM46.8041 37.4773V51.7166H56.8041V37.4773H46.8041ZM51.8041 46.7166H51.8019V56.7166H51.8041V46.7166ZM24.7738 10.7166C19.4933 10.7166 15.207 15.0028 15.207 20.2833H25.207C25.207 20.5256 25.0161 20.7166 24.7738 20.7166V10.7166ZM15.207 20.2833C15.207 25.5639 19.4933 29.8501 24.7738 29.8501V19.8501C25.0161 19.8501 25.207 20.0411 25.207 20.2833H15.207ZM24.7738 29.8501C30.0544 29.8501 34.3406 25.5639 34.3406 20.2833H24.3406C24.3406 20.0411 24.5316 19.8501 24.7738 19.8501V29.8501ZM34.3406 20.2833C34.3406 15.0028 30.0544 10.7166 24.7738 10.7166V20.7166C24.5316 20.7166 24.3406 20.5256 24.3406 20.2833H34.3406ZM24.7738 17.4522C26.3408 17.4522 27.6049 18.7164 27.6049 20.2833H17.6049C17.6049 24.2392 20.8179 27.4522 24.7738 27.4522V17.4522ZM27.6049 20.2833C27.6049 21.8503 26.3408 23.1145 24.7738 23.1145V13.1145C20.8179 13.1145 17.6049 16.3275 17.6049 20.2833H27.6049ZM24.7738 23.1145C23.2069 23.1145 21.9427 21.8503 21.9427 20.2833H31.9427C31.9427 16.3275 28.7297 13.1145 24.7738 13.1145V23.1145ZM21.9427 20.2833C21.9427 18.7164 23.2069 17.4522 24.7738 17.4522V27.4522C28.7297 27.4522 31.9427 24.2392 31.9427 20.2833H21.9427ZM27.98 21.909H21.3162V31.909H27.98V21.909ZM21.3162 21.909C19.65 21.909 17.955 22.5864 16.7486 23.9463C15.4744 25.3829 14.9566 27.3613 15.42 29.3026L25.1467 26.9807C25.444 28.226 25.1115 29.5881 24.2295 30.5823C23.4155 31.5 22.32 31.909 21.3162 31.909V21.909ZM15.2834 28.1416V52.8392H25.2834V28.1416H15.2834ZM15.4493 51.5616C14.2183 56.2195 18.3586 59.1738 21.6544 58.9503L20.978 48.9732C22.0863 48.8981 23.2601 49.3052 24.1239 50.2197C25.0397 51.1892 25.5037 52.6552 25.1174 54.1167L15.4493 51.5616ZM21.3162 58.9618H27.98V48.9618H21.3162V58.9618ZM27.6418 58.9503C31.4048 59.2055 34.179 56.1447 34.179 52.8055H24.179C24.179 50.791 25.8799 48.8079 28.3182 48.9732L27.6418 58.9503ZM34.179 52.8055V28.108H24.179V52.8055H34.179ZM34.179 28.108C34.179 26.4639 33.5259 24.8872 32.3633 23.7246L25.2923 30.7957C24.5794 30.0829 24.179 29.1161 24.179 28.108H34.179ZM32.3633 23.7246C31.2008 22.5621 29.6241 21.909 27.98 21.909L27.98 31.909C26.9719 31.909 26.0051 31.5086 25.2923 30.7957L32.3633 23.7246ZM27.0191 46.7166H22.5151V56.7166H27.0191V46.7166ZM27.5151 51.7166V29.3092H17.5151V51.7166H27.5151ZM22.5151 34.3092H27.0191V24.3092H22.5151V34.3092ZM22.0191 29.3092V51.7166H32.0191V29.3092H22.0191Z" fill="white" mask="url(#path-1-inside-1_112_201)"/>
<mask id="path-3-inside-2_112_201" fill="white">
<path d="M36 0C16.1477 0 0 16.1477 0 36C0 55.8523 16.1477 72 36 72C55.8523 72 72 55.8523 72 36C72 16.1477 55.8523 0 36 0ZM36 69.6021C17.4724 69.6021 2.3979 54.5276 2.3979 36C2.3979 17.4724 17.4724 2.3979 36 2.3979C54.5276 2.3979 69.6021 17.4724 69.6021 36C69.6021 54.5276 54.5276 69.6021 36 69.6021Z"/>
</mask>
<path d="M36 0C16.1477 0 0 16.1477 0 36C0 55.8523 16.1477 72 36 72C55.8523 72 72 55.8523 72 36C72 16.1477 55.8523 0 36 0ZM36 69.6021C17.4724 69.6021 2.3979 54.5276 2.3979 36C2.3979 17.4724 17.4724 2.3979 36 2.3979C54.5276 2.3979 69.6021 17.4724 69.6021 36C69.6021 54.5276 54.5276 69.6021 36 69.6021Z" fill="white"/>
<path d="M36 -5C13.3863 -5 -5 13.3863 -5 36H5C5 18.9091 18.9091 5 36 5V-5ZM-5 36C-5 58.6137 13.3863 77 36 77V67C18.9091 67 5 53.0909 5 36H-5ZM36 77C58.6137 77 77 58.6137 77 36H67C67 53.0909 53.0909 67 36 67V77ZM77 36C77 13.3863 58.6137 -5 36 -5V5C53.0909 5 67 18.9091 67 36H77ZM36 64.6021C20.2338 64.6021 7.3979 51.7662 7.3979 36H-2.6021C-2.6021 57.2891 14.7109 74.6021 36 74.6021V64.6021ZM7.3979 36C7.3979 20.2338 20.2338 7.3979 36 7.3979V-2.6021C14.7109 -2.6021 -2.6021 14.7109 -2.6021 36H7.3979ZM36 7.3979C51.7662 7.3979 64.6021 20.2338 64.6021 36H74.6021C74.6021 14.7109 57.2891 -2.6021 36 -2.6021V7.3979ZM64.6021 36C64.6021 51.7662 51.7662 64.6021 36 64.6021V74.6021C57.2891 74.6021 74.6021 57.2891 74.6021 36H64.6021Z" fill="white" mask="url(#path-3-inside-2_112_201)"/>
</svg>
