<svg width="52" height="52" viewBox="0 0 52 52" fill="none" xmlns="http://www.w3.org/2000/svg">
<path d="M28.2756 21.1813L28.3008 21.271C28.2958 21.2749 28.2907 21.2789 28.2857 21.2829L28.2756 21.2908V21.1813Z" fill="white" stroke="white" stroke-width="2"/>
<mask id="path-2-inside-1_112_155" fill="white">
<path d="M25.835 0C11.5882 0 0 11.5882 0 25.835C0 40.0818 11.5882 51.67 25.835 51.67C40.0818 51.67 51.67 40.0818 51.67 25.835C51.67 11.5882 40.0818 0 25.835 0ZM25.835 49.9492C12.5389 49.9492 1.72083 39.1311 1.72083 25.835C1.72083 12.5389 12.5389 1.72083 25.835 1.72083C39.1311 1.72083 49.9492 12.5389 49.9492 25.835C49.9492 39.1311 39.1311 49.9492 25.835 49.9492Z"/>
</mask>
<path d="M25.835 0C11.5882 0 0 11.5882 0 25.835C0 40.0818 11.5882 51.67 25.835 51.67C40.0818 51.67 51.67 40.0818 51.67 25.835C51.67 11.5882 40.0818 0 25.835 0ZM25.835 49.9492C12.5389 49.9492 1.72083 39.1311 1.72083 25.835C1.72083 12.5389 12.5389 1.72083 25.835 1.72083C39.1311 1.72083 49.9492 12.5389 49.9492 25.835C49.9492 39.1311 39.1311 49.9492 25.835 49.9492Z" fill="white"/>
<path d="M25.835 -2C10.4836 -2 -2 10.4836 -2 25.835H2C2 12.6928 12.6928 2 25.835 2V-2ZM-2 25.835C-2 41.1864 10.4836 53.67 25.835 53.67V49.67C12.6928 49.67 2 38.9772 2 25.835H-2ZM25.835 53.67C41.1864 53.67 53.67 41.1864 53.67 25.835H49.67C49.67 38.9772 38.9772 49.67 25.835 49.67V53.67ZM53.67 25.835C53.67 10.4836 41.1864 -2 25.835 -2V2C38.9772 2 49.67 12.6928 49.67 25.835H53.67ZM25.835 47.9492C13.6434 47.9492 3.72083 38.0266 3.72083 25.835H-0.27917C-0.27917 40.2357 11.4343 51.9492 25.835 51.9492V47.9492ZM3.72083 25.835C3.72083 13.6434 13.6434 3.72083 25.835 3.72083V-0.27917C11.4343 -0.27917 -0.27917 11.4343 -0.27917 25.835H3.72083ZM25.835 3.72083C38.0266 3.72083 47.9492 13.6434 47.9492 25.835H51.9492C51.9492 11.4343 40.2357 -0.27917 25.835 -0.27917V3.72083ZM47.9492 25.835C47.9492 38.0266 38.0266 47.9492 25.835 47.9492V51.9492C40.2357 51.9492 51.9492 40.2357 51.9492 25.835H47.9492Z" fill="white" mask="url(#path-2-inside-1_112_155)"/>
</svg>
