<svg width="52" height="52" viewBox="0 0 52 52" fill="none" xmlns="http://www.w3.org/2000/svg">
<path d="M25.8333 46.5C31.3145 46.5 36.5711 44.3226 40.4469 40.4469C44.3226 36.5711 46.5 31.3145 46.5 25.8333C46.5 20.3522 44.3226 15.0955 40.4469 11.2198C36.5711 7.34404 31.3145 5.16667 25.8333 5.16667C20.3522 5.16667 15.0955 7.34404 11.2198 11.2198C7.34404 15.0955 5.16667 20.3522 5.16667 25.8333C5.16667 31.3145 7.34404 36.5711 11.2198 40.4469C15.0955 44.3226 20.3522 46.5 25.8333 46.5ZM25.8333 51.6667C11.5656 51.6667 0 40.1011 0 25.8333C0 11.5656 11.5656 0 25.8333 0C40.1011 0 51.6667 11.5656 51.6667 25.8333C51.6667 40.1011 40.1011 51.6667 25.8333 51.6667Z" fill="white"/>
<path d="M25.8333 46.5C31.3145 46.5 36.5711 44.3226 40.4469 40.4469C44.3226 36.5711 46.5 31.3145 46.5 25.8333C46.5 20.3522 44.3226 15.0955 40.4469 11.2198C36.5711 7.34404 31.3145 5.16667 25.8333 5.16667C20.3522 5.16667 15.0955 7.34404 11.2198 11.2198C7.34404 15.0955 5.16667 20.3522 5.16667 25.8333C5.16667 31.3145 7.34404 36.5711 11.2198 40.4469C15.0955 44.3226 20.3522 46.5 25.8333 46.5ZM25.8333 51.6667C11.5656 51.6667 0 40.1011 0 25.8333C0 11.5656 11.5656 0 25.8333 0C40.1011 0 51.6667 11.5656 51.6667 25.8333C51.6667 40.1011 40.1011 51.6667 25.8333 51.6667Z" fill="white"/>
<path d="M38.2332 17.3264C37.2826 17.7398 36.2622 18.0239 35.1901 18.1479C36.2854 17.5021 37.1224 16.4791 37.5202 15.2624C36.4765 15.8707 35.3376 16.2986 34.1516 16.5282C33.6527 16.0053 33.0525 15.5894 32.3876 15.3061C31.7227 15.0227 31.0071 14.8777 30.2843 14.88C27.3574 14.88 24.9859 17.2179 24.9859 20.0984C24.9859 20.5065 25.0324 20.9044 25.1228 21.2867C23.0234 21.187 20.9678 20.6508 19.0872 19.7123C17.2067 18.7738 15.5423 17.4535 14.2005 15.8359C13.7292 16.6292 13.4811 17.5352 13.4823 18.4579C13.4823 20.2663 14.4201 21.8679 15.8409 22.8005C14.9999 22.7742 14.1769 22.5503 13.4384 22.1469V22.2115C13.4464 23.4243 13.8745 24.5968 14.6498 25.5294C15.4251 26.4621 16.4997 27.0971 17.6906 27.3265C16.9087 27.5333 16.0907 27.5633 15.2958 27.4144C15.6423 28.4577 16.3051 29.3672 17.192 30.0167C18.079 30.6662 19.1462 31.0235 20.2455 31.0388C18.3596 32.4921 16.0441 33.2772 13.6632 33.2708C13.2369 33.2708 12.8158 33.2449 12.3999 33.1984C14.8295 34.7363 17.6466 35.5508 20.5219 35.5467C30.2714 35.5467 35.6008 27.5952 35.6008 20.6977L35.5827 20.0209C36.622 19.2905 37.5201 18.3776 38.2332 17.3264V17.3264Z" fill="white"/>
</svg>
