<svg width="52" height="52" viewBox="0 0 52 52" fill="none" xmlns="http://www.w3.org/2000/svg">
<path d="M25.8333 0C18.8153 0 17.9391 0.0322917 15.1835 0.155C12.4323 0.284167 10.5594 0.716875 8.9125 1.35625C7.21396 2.015 5.7716 2.89979 4.33569 4.33569C2.89979 5.7716 2.01285 7.21181 1.35625 8.9125C0.716875 10.5594 0.282014 12.4323 0.155 15.1835C0.0258333 17.9391 0 18.8153 0 25.8333C0 32.8514 0.0322917 33.7276 0.155 36.4831C0.284167 39.2322 0.716875 41.1073 1.35625 42.7542C2.00486 44.4782 3.02163 46.0401 4.33569 47.331C5.62581 48.646 7.18791 49.6629 8.9125 50.3104C10.5615 50.9476 12.4344 51.3847 15.1835 51.5117C17.9391 51.6408 18.8153 51.6667 25.8333 51.6667C32.8514 51.6667 33.7276 51.6344 36.4831 51.5117C39.2322 51.3825 41.1073 50.9476 42.7542 50.3104C44.4778 49.661 46.0395 48.6443 47.331 47.331C48.6464 46.0412 49.6634 44.479 50.3104 42.7542C50.9476 41.1073 51.3847 39.2322 51.5117 36.4831C51.6408 33.7276 51.6667 32.8514 51.6667 25.8333C51.6667 18.8153 51.6344 17.9391 51.5117 15.1835C51.3825 12.4344 50.9476 10.5572 50.3104 8.9125C49.6615 7.1886 48.6448 5.62678 47.331 4.33569C46.0418 3.01957 44.4794 2.00249 42.7542 1.35625C41.1073 0.716875 39.2322 0.282014 36.4831 0.155C33.7276 0.0258333 32.8514 0 25.8333 0ZM25.8333 4.65C32.7287 4.65 33.551 4.68444 36.2743 4.80285C38.7931 4.92125 40.1601 5.33889 41.0685 5.69625C42.2784 6.1634 43.1352 6.72313 44.0437 7.62514C44.9457 8.52931 45.5054 9.38826 45.9726 10.5981C46.3256 11.5066 46.7476 12.8736 46.8617 15.3924C46.9844 18.1178 47.0124 18.9358 47.0124 25.8333C47.0124 32.7308 46.9801 33.551 46.8531 36.2743C46.7217 38.7931 46.3019 40.1601 45.9467 41.0685C45.5265 42.1896 44.8659 43.2051 44.0114 44.0437C43.1764 44.899 42.1616 45.5579 41.0406 45.9726C40.1364 46.3256 38.7479 46.7476 36.2291 46.8617C33.4865 46.9844 32.6792 47.0124 25.7688 47.0124C18.8562 47.0124 18.0489 46.9801 15.3084 46.8531C12.7875 46.7217 11.399 46.3019 10.4948 45.9467C9.37299 45.5317 8.35854 44.8703 7.52611 44.0114C6.66195 43.182 5.99918 42.1658 5.58861 41.0406C5.2334 40.1364 4.81576 38.7479 4.68444 36.2291C4.58757 33.5166 4.55313 32.6792 4.55313 25.801C4.55313 18.9208 4.58757 18.0812 4.68444 15.3364C4.81576 12.8176 5.2334 11.4313 5.58861 10.5271C6.04069 9.3 6.61979 8.46042 7.52611 7.5541C8.42813 6.65208 9.26986 6.07083 10.4948 5.6209C11.399 5.26354 12.7574 4.84375 15.2761 4.71458C18.0209 4.61771 18.8282 4.58542 25.7365 4.58542L25.8333 4.65V4.65ZM25.8333 12.5679C24.0913 12.5679 22.3663 12.911 20.7569 13.5777C19.1474 14.2443 17.6851 15.2215 16.4533 16.4533C15.2215 17.6851 14.2443 19.1474 13.5777 20.7569C12.911 22.3663 12.5679 24.0913 12.5679 25.8333C12.5679 27.5754 12.911 29.3004 13.5777 30.9098C14.2443 32.5192 15.2215 33.9816 16.4533 35.2134C17.6851 36.4452 19.1474 37.4223 20.7569 38.089C22.3663 38.7556 24.0913 39.0988 25.8333 39.0988C29.3515 39.0988 32.7257 37.7011 35.2134 35.2134C37.7011 32.7257 39.0988 29.3515 39.0988 25.8333C39.0988 22.3151 37.7011 18.941 35.2134 16.4533C32.7257 13.9655 29.3515 12.5679 25.8333 12.5679V12.5679ZM25.8333 34.4444C21.0757 34.4444 17.2222 30.591 17.2222 25.8333C17.2222 21.0757 21.0757 17.2222 25.8333 17.2222C30.591 17.2222 34.4444 21.0757 34.4444 25.8333C34.4444 30.591 30.591 34.4444 25.8333 34.4444ZM42.724 12.0448C42.6941 12.847 42.3544 13.6063 41.7763 14.1633C41.1982 14.7202 40.4268 15.0314 39.624 15.0314C38.8213 15.0314 38.0498 14.7202 37.4717 14.1633C36.8936 13.6063 36.5539 12.847 36.524 12.0448C36.524 11.2226 36.8506 10.4341 37.432 9.85276C38.0134 9.2714 38.8019 8.94479 39.624 8.94479C40.4462 8.94479 41.2347 9.2714 41.8161 9.85276C42.3974 10.4341 42.724 11.2226 42.724 12.0448V12.0448Z" fill="white"/>
</svg>
