<svg width="150" height="150" viewBox="0 0 150 150" fill="none" xmlns="http://www.w3.org/2000/svg">
<circle cx="75" cy="75" r="75" fill="#0F1221"/>
<mask id="mask0_112_183" style="mask-type:alpha" maskUnits="userSpaceOnUse" x="42" y="40" width="33" height="30">
<path d="M42.5 42C42.5 40.8954 43.3954 40 44.5 40H75V70H44.5C43.3954 70 42.5 69.1046 42.5 68V42Z" fill="#0651E8"/>
</mask>
<g mask="url(#mask0_112_183)">
<path d="M42.5 70H67.5L75 40H42.5V70Z" fill="#0651E8"/>
<path d="M63.75 45V48.75L51.25 55V56.25L63.75 61.25V65L45 57.5V53.75L63.75 45Z" fill="#0F1221"/>
</g>
<mask id="mask1_112_183" style="mask-type:alpha" maskUnits="userSpaceOnUse" x="75" y="22" width="33" height="31">
<path d="M107.5 50.5C107.5 51.6046 106.605 52.5 105.5 52.5L75 52.5V22.5L105.5 22.5C106.605 22.5 107.5 23.3954 107.5 24.5V50.5Z" fill="#0651E8"/>
</mask>
<g mask="url(#mask1_112_183)">
<path d="M107.5 22.5L82.5 22.5L75 52.5L107.5 52.5V22.5Z" fill="#61E0E7"/>
<path d="M86.25 47.5V43.75L98.75 37.5V36.25L86.25 31.25V27.5L105 35V38.75L86.25 47.5Z" fill="#0F1221"/>
</g>
<path d="M36.7488 90L34.3426 82.1592H34.2811C34.2902 82.346 34.3038 82.6286 34.3221 83.0068C34.3449 83.3805 34.3654 83.7793 34.3836 84.2031C34.4018 84.627 34.4109 85.0098 34.4109 85.3516V90H32.5174V80.0059H35.4021L37.7674 87.6484H37.8084L40.3172 80.0059H43.202V90H41.2264V85.2695C41.2264 84.9551 41.2309 84.5928 41.24 84.1826C41.2537 83.7725 41.2697 83.3828 41.2879 83.0137C41.3061 82.64 41.3198 82.3597 41.3289 82.1729H41.2674L38.6902 90H36.7488ZM52.5426 90L51.818 87.6211H48.1744L47.4498 90H45.1666L48.6939 79.9648H51.2848L54.8258 90H52.5426ZM51.3121 85.8438L50.5875 83.5195C50.5419 83.3646 50.4804 83.1663 50.4029 82.9248C50.33 82.6787 50.2548 82.4303 50.1773 82.1797C50.1044 81.9245 50.0452 81.7035 49.9996 81.5166C49.954 81.7035 49.8902 81.9359 49.8082 82.2139C49.7307 82.4873 49.6555 82.7471 49.5826 82.9932C49.5097 83.2393 49.4573 83.4147 49.4254 83.5195L48.7076 85.8438H51.3121ZM63.3051 90H55.8676V88.626L60.6596 81.7559H55.9975V80.0059H63.1752V81.373L58.39 88.25H63.3051V90ZM72.1125 90H64.675V88.626L69.467 81.7559H64.8049V80.0059H71.9826V81.373L67.1975 88.25H72.1125V90ZM73.5645 87.1016V85.3926H77.2354V87.1016H73.5645ZM83.8621 81.626C83.4565 81.626 83.0965 81.7057 82.782 81.8652C82.4721 82.0202 82.2101 82.2458 81.9959 82.542C81.7863 82.8382 81.6268 83.196 81.5174 83.6152C81.408 84.0345 81.3533 84.5062 81.3533 85.0303C81.3533 85.7367 81.4399 86.3405 81.6131 86.8418C81.7908 87.3385 82.0643 87.7191 82.4334 87.9834C82.8025 88.2432 83.2788 88.373 83.8621 88.373C84.2677 88.373 84.6733 88.3275 85.0789 88.2363C85.4891 88.1452 85.9334 88.0153 86.4119 87.8467V89.624C85.9699 89.8063 85.5346 89.9362 85.1063 90.0137C84.6779 90.0957 84.1971 90.1367 83.6639 90.1367C82.6339 90.1367 81.7863 89.9248 81.1209 89.501C80.4601 89.0726 79.9702 88.4756 79.6512 87.71C79.3322 86.9398 79.1727 86.042 79.1727 85.0166C79.1727 84.2601 79.2752 83.5674 79.4803 82.9385C79.6854 82.3096 79.9861 81.765 80.3826 81.3047C80.7791 80.8444 81.269 80.4889 81.8523 80.2383C82.4357 79.9876 83.1056 79.8623 83.8621 79.8623C84.3589 79.8623 84.8556 79.9261 85.3523 80.0537C85.8536 80.1768 86.3322 80.3477 86.7879 80.5664L86.1043 82.2891C85.7306 82.1113 85.3546 81.9564 84.9764 81.8242C84.5981 81.6921 84.2267 81.626 83.8621 81.626ZM98.316 84.9893C98.316 85.7594 98.2203 86.4613 98.0289 87.0947C97.8375 87.7236 97.5458 88.266 97.1539 88.7217C96.7665 89.1774 96.2744 89.5283 95.6773 89.7744C95.0803 90.016 94.374 90.1367 93.5582 90.1367C92.7424 90.1367 92.0361 90.016 91.4391 89.7744C90.8421 89.5283 90.3476 89.1774 89.9557 88.7217C89.5683 88.266 89.2789 87.7214 89.0875 87.0879C88.8961 86.4544 88.8004 85.7503 88.8004 84.9756C88.8004 83.9411 88.969 83.041 89.3063 82.2754C89.648 81.5052 90.1721 80.9082 90.8785 80.4844C91.5849 80.0605 92.4827 79.8486 93.5719 79.8486C94.6565 79.8486 95.5475 80.0605 96.2447 80.4844C96.9466 80.9082 97.4661 81.5052 97.8033 82.2754C98.1451 83.0456 98.316 83.9502 98.316 84.9893ZM91.0221 84.9893C91.0221 85.6865 91.1087 86.2881 91.2818 86.7939C91.4596 87.2952 91.7353 87.6826 92.109 87.9561C92.4827 88.2249 92.9658 88.3594 93.5582 88.3594C94.1598 88.3594 94.6474 88.2249 95.0211 87.9561C95.3948 87.6826 95.666 87.2952 95.8346 86.7939C96.0077 86.2881 96.0943 85.6865 96.0943 84.9893C96.0943 83.9411 95.8984 83.1162 95.5064 82.5146C95.1145 81.9131 94.4697 81.6123 93.5719 81.6123C92.9749 81.6123 92.4872 81.749 92.109 82.0225C91.7353 82.2913 91.4596 82.6787 91.2818 83.1846C91.1087 83.6859 91.0221 84.2874 91.0221 84.9893ZM109.379 84.9072C109.379 86.0329 109.163 86.974 108.73 87.7305C108.302 88.4824 107.679 89.0498 106.864 89.4326C106.048 89.8109 105.066 90 103.917 90H101.087V80.0059H104.225C105.273 80.0059 106.182 80.1927 106.953 80.5664C107.723 80.9355 108.32 81.4847 108.744 82.2139C109.167 82.9385 109.379 83.8363 109.379 84.9072ZM107.178 84.9619C107.178 84.2236 107.069 83.6175 106.85 83.1436C106.636 82.665 106.317 82.3118 105.893 82.084C105.474 81.8561 104.954 81.7422 104.334 81.7422H103.206V88.25H104.116C105.15 88.25 105.918 87.9743 106.419 87.4229C106.925 86.8714 107.178 86.0511 107.178 84.9619ZM117.906 90H112.151V80.0059H117.906V81.7422H114.27V83.9365H117.654V85.6729H114.27V88.25H117.906V90Z" fill="white"/>
<path d="M47.4641 109H47.0114V102.575H50.5271V102.984H47.4641V105.722H50.3601V106.126H47.4641V109ZM54.4478 102.575C54.9576 102.575 55.3824 102.631 55.7223 102.742C56.065 102.854 56.3228 103.037 56.4957 103.292C56.6686 103.546 56.755 103.891 56.755 104.324C56.755 104.649 56.6949 104.929 56.5748 105.164C56.4576 105.395 56.295 105.585 56.087 105.735C55.879 105.884 55.6388 105.999 55.3663 106.078L57.1285 109H56.5924L54.9356 106.205H53.3404V109H52.8878V102.575H54.4478ZM54.4039 102.975H53.3404V105.805H54.6192C55.1437 105.805 55.5523 105.679 55.8453 105.427C56.1412 105.175 56.2892 104.813 56.2892 104.342C56.2892 103.823 56.1339 103.466 55.8233 103.27C55.5128 103.073 55.0396 102.975 54.4039 102.975ZM64.9956 105.779C64.9956 106.268 64.9355 106.715 64.8154 107.119C64.6953 107.523 64.5151 107.872 64.2749 108.165C64.0347 108.458 63.7344 108.685 63.374 108.846C63.0166 109.007 62.5991 109.088 62.1216 109.088C61.6411 109.088 61.2207 109.007 60.8604 108.846C60.5 108.685 60.1997 108.458 59.9595 108.165C59.7222 107.869 59.5435 107.519 59.4233 107.115C59.3032 106.708 59.2432 106.259 59.2432 105.77C59.2432 105.12 59.353 104.547 59.5728 104.052C59.7954 103.557 60.1221 103.17 60.5527 102.892C60.9863 102.613 61.521 102.474 62.1567 102.474C62.7661 102.474 63.2817 102.607 63.7036 102.874C64.1284 103.138 64.4492 103.517 64.666 104.012C64.8857 104.504 64.9956 105.093 64.9956 105.779ZM59.7178 105.774C59.7178 106.349 59.8042 106.855 59.9771 107.295C60.1499 107.731 60.415 108.073 60.7725 108.319C61.1299 108.565 61.5811 108.688 62.126 108.688C62.6768 108.688 63.1294 108.566 63.4839 108.323C63.8384 108.08 64.1006 107.74 64.2705 107.304C64.4404 106.867 64.5254 106.359 64.5254 105.779C64.5254 104.862 64.3247 104.15 63.9233 103.643C63.5249 103.136 62.936 102.883 62.1567 102.883C61.6089 102.883 61.1533 103.004 60.79 103.248C60.4297 103.491 60.1602 103.829 59.9814 104.263C59.8057 104.696 59.7178 105.2 59.7178 105.774ZM72.4979 109H72.0365L68.2396 103.318H68.2177C68.2235 103.476 68.2279 103.637 68.2309 103.801C68.2367 103.962 68.2411 104.129 68.244 104.302C68.2499 104.472 68.2528 104.648 68.2528 104.83V109H67.8222V102.575H68.288L72.0717 108.24H72.0937C72.0907 108.111 72.0863 107.961 72.0805 107.792C72.0775 107.622 72.0731 107.447 72.0673 107.269C72.0644 107.09 72.0629 106.921 72.0629 106.763V102.575H72.4979V109ZM77.346 109H76.889V102.984H74.806V102.575H79.429V102.984H77.346V109ZM88.9361 109H85.4249V102.575H88.9361V102.984H85.8775V105.418H88.7647V105.827H85.8775V108.591H88.9361V109ZM96.4253 109H95.9639L92.167 103.318H92.145C92.1509 103.476 92.1553 103.637 92.1582 103.801C92.1641 103.962 92.1685 104.129 92.1714 104.302C92.1772 104.472 92.1802 104.648 92.1802 104.83V109H91.7495V102.575H92.2153L95.999 108.24H96.021C96.0181 108.111 96.0137 107.961 96.0078 107.792C96.0049 107.622 96.0005 107.447 95.9946 107.269C95.9917 107.09 95.9902 106.921 95.9902 106.763V102.575H96.4253V109ZM104.481 105.726C104.481 106.444 104.354 107.046 104.099 107.532C103.847 108.019 103.472 108.385 102.974 108.631C102.479 108.877 101.865 109 101.133 109H99.5946V102.575H101.335C102.02 102.575 102.596 102.695 103.062 102.936C103.528 103.176 103.881 103.53 104.121 103.999C104.361 104.465 104.481 105.041 104.481 105.726ZM104.007 105.744C104.007 105.131 103.907 104.62 103.708 104.21C103.509 103.8 103.204 103.492 102.794 103.287C102.384 103.079 101.864 102.975 101.234 102.975H100.047V108.6H101.111C102.08 108.6 102.806 108.363 103.286 107.888C103.767 107.411 104.007 106.696 104.007 105.744ZM44.1831 117.726C44.1831 118.444 44.0557 119.046 43.8008 119.532C43.5488 120.019 43.1738 120.385 42.6758 120.631C42.1807 120.877 41.5669 121 40.8345 121H39.2964V114.575H41.0366C41.7222 114.575 42.2979 114.695 42.7637 114.936C43.2295 115.176 43.5825 115.53 43.8228 115.999C44.063 116.465 44.1831 117.041 44.1831 117.726ZM43.7085 117.744C43.7085 117.131 43.6089 116.62 43.4097 116.21C43.2104 115.8 42.9058 115.492 42.4956 115.287C42.0854 115.079 41.5654 114.975 40.9355 114.975H39.749V120.6H40.8125C41.7822 120.6 42.5073 120.363 42.9878 119.888C43.4683 119.411 43.7085 118.696 43.7085 117.744ZM50.5121 121H47.0009V114.575H50.5121V114.984H47.4535V117.418H50.3407V117.827H47.4535V120.591H50.5121V121ZM57.6146 114.575L55.2415 121H54.7933L52.4202 114.575H52.8948L54.6526 119.33C54.7024 119.468 54.7493 119.603 54.7933 119.734C54.8372 119.863 54.8782 119.988 54.9163 120.108C54.9544 120.228 54.9881 120.344 55.0174 120.455C55.0467 120.344 55.0789 120.231 55.1141 120.117C55.1521 120 55.1932 119.876 55.2371 119.748C55.2811 119.616 55.3294 119.475 55.3821 119.326L57.1355 114.575H57.6146ZM63.3811 121H59.8698V114.575H63.3811V114.984H60.3225V117.418H63.2097V117.827H60.3225V120.591H63.3811V121ZM66.1944 121V114.575H66.6471V120.587H69.7057V121H66.1944ZM77.564 117.779C77.564 118.268 77.5039 118.715 77.3838 119.119C77.2637 119.523 77.0835 119.872 76.8433 120.165C76.603 120.458 76.3027 120.685 75.9424 120.846C75.585 121.007 75.1675 121.088 74.6899 121.088C74.2095 121.088 73.7891 121.007 73.4287 120.846C73.0684 120.685 72.7681 120.458 72.5278 120.165C72.2905 119.869 72.1118 119.519 71.9917 119.115C71.8716 118.708 71.8115 118.259 71.8115 117.77C71.8115 117.12 71.9214 116.547 72.1411 116.052C72.3638 115.557 72.6904 115.17 73.1211 114.892C73.5547 114.613 74.0894 114.474 74.7251 114.474C75.3345 114.474 75.8501 114.607 76.272 114.874C76.6968 115.138 77.0176 115.517 77.2344 116.012C77.4541 116.504 77.564 117.093 77.564 117.779ZM72.2861 117.774C72.2861 118.349 72.3726 118.855 72.5454 119.295C72.7183 119.731 72.9834 120.073 73.3408 120.319C73.6982 120.565 74.1494 120.688 74.6943 120.688C75.2451 120.688 75.6978 120.566 76.0522 120.323C76.4067 120.08 76.6689 119.74 76.8389 119.304C77.0088 118.867 77.0938 118.359 77.0938 117.779C77.0938 116.862 76.8931 116.15 76.4917 115.643C76.0933 115.136 75.5044 114.883 74.7251 114.883C74.1772 114.883 73.7217 115.004 73.3584 115.248C72.998 115.491 72.7285 115.829 72.5498 116.263C72.374 116.696 72.2861 117.2 72.2861 117.774ZM81.9682 114.575C82.7328 114.575 83.3056 114.722 83.6864 115.015C84.0673 115.308 84.2577 115.763 84.2577 116.381C84.2577 116.698 84.2064 116.979 84.1039 117.225C84.0043 117.468 83.8534 117.673 83.6513 117.84C83.4491 118.007 83.1957 118.133 82.891 118.218C82.5893 118.303 82.2362 118.346 81.8319 118.346H80.8432V121H80.3905V114.575H81.9682ZM81.9198 114.975H80.8432V117.946H81.788C82.204 117.946 82.5614 117.899 82.8603 117.805C83.1591 117.708 83.3891 117.547 83.5502 117.322C83.7113 117.096 83.7919 116.789 83.7919 116.399C83.7919 115.904 83.6395 115.543 83.3349 115.318C83.0302 115.089 82.5585 114.975 81.9198 114.975ZM89.7869 121L87.427 115.067H87.4051C87.4109 115.176 87.4153 115.29 87.4183 115.41C87.4241 115.527 87.4285 115.65 87.4314 115.779C87.4344 115.908 87.4358 116.043 87.4358 116.184V121H87.0052V114.575H87.6907L89.9671 120.297H89.9935L92.2874 114.575H92.9554V121H92.5115V116.131C92.5115 116.017 92.513 115.899 92.5159 115.779C92.5188 115.659 92.5218 115.541 92.5247 115.423C92.5306 115.303 92.5364 115.188 92.5423 115.076H92.5159L90.1473 121H89.7869ZM99.6359 121H96.1247V114.575H99.6359V114.984H96.5773V117.418H99.4646V117.827H96.5773V120.591H99.6359V121ZM107.125 121H106.664L102.867 115.318H102.845C102.851 115.476 102.855 115.637 102.858 115.801C102.864 115.962 102.868 116.129 102.871 116.302C102.877 116.472 102.88 116.648 102.88 116.83V121H102.449V114.575H102.915L106.699 120.24H106.721C106.718 120.111 106.713 119.961 106.708 119.792C106.705 119.622 106.7 119.447 106.694 119.269C106.692 119.09 106.69 118.921 106.69 118.763V114.575H107.125V121ZM111.973 121H111.516V114.984H109.433V114.575H114.056V114.984H111.973V121Z" fill="white"/>
</svg>
