<svg width="60" height="60" viewBox="0 0 60 60" fill="none" xmlns="http://www.w3.org/2000/svg">
<circle cx="30" cy="30" r="30" fill="#0F1221"/>
<mask id="mask0_112_2" style="mask-type:alpha" maskUnits="userSpaceOnUse" x="17" y="16" width="13" height="12">
<path d="M17 18C17 16.8954 17.8954 16 19 16H30V28H19C17.8954 28 17 27.1046 17 26V18Z" fill="#0651E8"/>
</mask>
<g mask="url(#mask0_112_2)">
<path d="M17 28H27L30 16H17V28Z" fill="#0651E8"/>
<path d="M25.5 18V19.5L20.5 22V22.5L25.5 24.5V26L18 23V21.5L25.5 18Z" fill="#0F1221"/>
</g>
<mask id="mask1_112_2" style="mask-type:alpha" maskUnits="userSpaceOnUse" x="30" y="9" width="13" height="12">
<path d="M43 19C43 20.1046 42.1046 21 41 21H30V9L41 9C42.1046 9 43 9.89543 43 11V19Z" fill="#0651E8"/>
</mask>
<g mask="url(#mask1_112_2)">
<path d="M43 9L33 9L30 21H43V9Z" fill="#61E0E7"/>
<path d="M34.5 19V17.5L39.5 15V14.5L34.5 12.5V11L42 14V15.5L34.5 19Z" fill="#0F1221"/>
</g>
<path d="M12.2405 37L11.1233 33.3596H11.0948C11.099 33.4464 11.1054 33.5776 11.1138 33.7532C11.1244 33.9267 11.1339 34.1118 11.1424 34.3086C11.1508 34.5054 11.1551 34.6831 11.1551 34.8418V37H10.2759V32.3599H11.6153L12.7134 35.9082H12.7325L13.8973 32.3599H15.2366V37H14.3194V34.8037C14.3194 34.6577 14.3215 34.4895 14.3257 34.2991C14.3321 34.1086 14.3395 33.9277 14.3479 33.7563C14.3564 33.5828 14.3628 33.4527 14.367 33.366H14.3384L13.1419 37H12.2405ZM19.5733 37L19.2369 35.8955H17.5453L17.2088 37H16.1488L17.7865 32.3408H18.9894L20.6334 37H19.5733ZM19.0021 35.0703L18.6656 33.9912C18.6445 33.9193 18.6159 33.8272 18.5799 33.7151C18.5461 33.6008 18.5112 33.4855 18.4752 33.3691C18.4413 33.2507 18.4138 33.148 18.3927 33.0613C18.3715 33.148 18.3419 33.2559 18.3038 33.385C18.2678 33.512 18.2329 33.6326 18.1991 33.7468C18.1652 33.8611 18.1409 33.9425 18.1261 33.9912L17.7928 35.0703H19.0021ZM24.5702 37H21.1171V36.3621L23.3419 33.1724H21.1774V32.3599H24.5099V32.9946L22.2882 36.1875H24.5702V37ZM28.6594 37H25.2063V36.3621L27.4311 33.1724H25.2666V32.3599H28.5991V32.9946L26.3774 36.1875H28.6594V37ZM29.3335 35.6543V34.8608H31.0378V35.6543H29.3335ZM34.1146 33.1121C33.9262 33.1121 33.7591 33.1491 33.6131 33.2231C33.4692 33.2951 33.3475 33.3998 33.2481 33.5374C33.1508 33.6749 33.0767 33.841 33.0259 34.0356C32.9751 34.2303 32.9498 34.4493 32.9498 34.6926C32.9498 35.0206 32.99 35.3009 33.0704 35.5337C33.1529 35.7643 33.2798 35.941 33.4512 36.0637C33.6226 36.1843 33.8437 36.2446 34.1146 36.2446C34.3029 36.2446 34.4912 36.2235 34.6795 36.1812C34.8699 36.1388 35.0762 36.0785 35.2984 36.0002V36.8254C35.0931 36.9101 34.8911 36.9704 34.6922 37.0063C34.4933 37.0444 34.2701 37.0635 34.0225 37.0635C33.5443 37.0635 33.1508 36.9651 32.8418 36.7683C32.535 36.5694 32.3076 36.2922 32.1595 35.9368C32.0114 35.5792 31.9373 35.1624 31.9373 34.6863C31.9373 34.335 31.9849 34.0134 32.0801 33.7214C32.1753 33.4294 32.315 33.1766 32.4991 32.9629C32.6832 32.7492 32.9106 32.5841 33.1814 32.4678C33.4523 32.3514 33.7633 32.2932 34.1146 32.2932C34.3452 32.2932 34.5758 32.3228 34.8064 32.3821C35.0392 32.4392 35.2614 32.5186 35.4729 32.6201L35.1556 33.4199C34.9821 33.3374 34.8075 33.2655 34.6319 33.2041C34.4563 33.1427 34.2838 33.1121 34.1146 33.1121ZM40.8253 34.6736C40.8253 35.0312 40.7809 35.357 40.692 35.6511C40.6031 35.9431 40.4677 36.1949 40.2857 36.4065C40.1059 36.6181 39.8774 36.781 39.6002 36.8953C39.323 37.0074 38.9951 37.0635 38.6163 37.0635C38.2376 37.0635 37.9096 37.0074 37.6324 36.8953C37.3552 36.781 37.1257 36.6181 36.9437 36.4065C36.7639 36.1949 36.6295 35.9421 36.5406 35.6479C36.4518 35.3538 36.4073 35.0269 36.4073 34.6672C36.4073 34.1869 36.4856 33.769 36.6422 33.4136C36.8009 33.056 37.0442 32.7788 37.3722 32.582C37.7001 32.3853 38.117 32.2869 38.6227 32.2869C39.1262 32.2869 39.5399 32.3853 39.8636 32.582C40.1895 32.7788 40.4307 33.056 40.5873 33.4136C40.7459 33.7712 40.8253 34.1912 40.8253 34.6736ZM37.4388 34.6736C37.4388 34.9973 37.479 35.2766 37.5594 35.5115C37.6419 35.7442 37.77 35.9241 37.9435 36.051C38.117 36.1759 38.3412 36.2383 38.6163 36.2383C38.8956 36.2383 39.122 36.1759 39.2955 36.051C39.469 35.9241 39.5949 35.7442 39.6732 35.5115C39.7536 35.2766 39.7938 34.9973 39.7938 34.6736C39.7938 34.1869 39.7028 33.804 39.5209 33.5247C39.3389 33.2454 39.0395 33.1057 38.6227 33.1057C38.3455 33.1057 38.1191 33.1692 37.9435 33.2961C37.77 33.421 37.6419 33.6008 37.5594 33.8357C37.479 34.0684 37.4388 34.3477 37.4388 34.6736ZM45.9618 34.6355C45.9618 35.1581 45.8613 35.5951 45.6603 35.9463C45.4614 36.2954 45.1726 36.5588 44.7938 36.7366C44.4151 36.9122 43.9591 37 43.4259 37H42.112V32.3599H43.5687C44.0554 32.3599 44.4775 32.4466 44.8351 32.6201C45.1927 32.7915 45.4699 33.0465 45.6666 33.385C45.8634 33.7214 45.9618 34.1383 45.9618 34.6355ZM44.9398 34.6609C44.9398 34.3181 44.8891 34.0367 44.7875 33.8167C44.6881 33.5945 44.5399 33.4305 44.3432 33.3247C44.1485 33.2189 43.9073 33.166 43.6195 33.166H43.0958V36.1875H43.518C43.9983 36.1875 44.3548 36.0595 44.5875 35.8035C44.8224 35.5474 44.9398 35.1666 44.9398 34.6609ZM49.9208 37H47.2485V32.3599H49.9208V33.166H48.2324V34.1848H49.8034V34.991H48.2324V36.1875H49.9208V37Z" fill="white"/>
<path d="M19.3055 44H19.1294V41.5015H20.4966V41.6604H19.3055V42.7251H20.4317V42.8823H19.3055V44ZM22.0214 41.5015C22.2196 41.5015 22.3848 41.5231 22.517 41.5664C22.6503 41.6097 22.7506 41.6809 22.8178 41.78C22.885 41.8792 22.9186 42.013 22.9186 42.1816C22.9186 42.3081 22.8952 42.4169 22.8485 42.5081C22.803 42.5981 22.7397 42.6721 22.6588 42.7302C22.5779 42.7883 22.4845 42.8328 22.3786 42.8635L23.0639 44H22.8554L22.2111 42.9131H21.5907V44H21.4147V41.5015H22.0214ZM22.0043 41.657H21.5907V42.7576H22.088C22.292 42.7576 22.4509 42.7086 22.5648 42.6106C22.6799 42.5126 22.7375 42.3719 22.7375 42.1885C22.7375 41.9868 22.6771 41.8478 22.5563 41.7715C22.4355 41.6951 22.2515 41.657 22.0043 41.657ZM26.1233 42.7473C26.1233 42.9376 26.0999 43.1113 26.0532 43.2686C26.0065 43.4258 25.9364 43.5614 25.843 43.6753C25.7496 43.7892 25.6328 43.8775 25.4927 43.9402C25.3537 44.0028 25.1913 44.0342 25.0056 44.0342C24.8188 44.0342 24.6553 44.0028 24.5151 43.9402C24.375 43.8775 24.2582 43.7892 24.1648 43.6753C24.0725 43.5602 24.003 43.4241 23.9563 43.2668C23.9096 43.1085 23.8862 42.9342 23.8862 42.7439C23.8862 42.491 23.929 42.2682 24.0144 42.0757C24.101 41.8831 24.228 41.7327 24.3955 41.6245C24.5641 41.5163 24.7721 41.4622 25.0193 41.4622C25.2563 41.4622 25.4568 41.514 25.6208 41.6177C25.7861 41.7202 25.9108 41.8678 25.9951 42.0603C26.0806 42.2517 26.1233 42.4807 26.1233 42.7473ZM24.0708 42.7456C24.0708 42.9689 24.1044 43.166 24.1716 43.3369C24.2389 43.5067 24.342 43.6394 24.481 43.7351C24.62 43.8308 24.7954 43.8787 25.0073 43.8787C25.2215 43.8787 25.3975 43.8314 25.5354 43.7368C25.6733 43.6423 25.7752 43.5101 25.8413 43.3403C25.9074 43.1706 25.9404 42.9729 25.9404 42.7473C25.9404 42.3907 25.8624 42.1139 25.7063 41.9167C25.5514 41.7196 25.3223 41.6211 25.0193 41.6211C24.8062 41.6211 24.6291 41.6684 24.4878 41.7629C24.3477 41.8575 24.2428 41.9891 24.1733 42.1577C24.105 42.3263 24.0708 42.5223 24.0708 42.7456ZM29.0409 44H28.8614L27.3849 41.7903H27.3763C27.3786 41.8518 27.3803 41.9145 27.3814 41.9783C27.3837 42.0409 27.3854 42.1059 27.3866 42.1731C27.3889 42.2392 27.39 42.3075 27.39 42.3782V44H27.2225V41.5015H27.4037L28.8751 43.7043H28.8836C28.8825 43.6542 28.8808 43.5961 28.8785 43.53C28.8774 43.4639 28.8757 43.3962 28.8734 43.3267C28.8722 43.2572 28.8717 43.1917 28.8717 43.1301V41.5015H29.0409V44ZM30.9262 44H30.7485V41.6604H29.9384V41.5015H31.7363V41.6604H30.9262V44ZM35.4335 44H34.068V41.5015H35.4335V41.6604H34.244V42.6072H35.3668V42.7661H34.244V43.8411H35.4335V44ZM38.3459 44H38.1665L36.6899 41.7903H36.6814C36.6837 41.8518 36.6854 41.9145 36.6865 41.9783C36.6888 42.0409 36.6905 42.1059 36.6917 42.1731C36.6939 42.2392 36.6951 42.3075 36.6951 42.3782V44H36.5276V41.5015H36.7087L38.1802 43.7043H38.1887C38.1876 43.6542 38.1859 43.5961 38.1836 43.53C38.1825 43.4639 38.1807 43.3962 38.1785 43.3267C38.1773 43.2572 38.1768 43.1917 38.1768 43.1301V41.5015H38.3459V44ZM41.4789 42.7268C41.4789 43.0059 41.4293 43.2401 41.3302 43.4292C41.2322 43.6183 41.0864 43.7607 40.8927 43.8564C40.7001 43.9521 40.4614 44 40.1766 44H39.5785V41.5015H40.2552C40.5218 41.5015 40.7457 41.5482 40.9269 41.6416C41.108 41.735 41.2453 41.8729 41.3387 42.0552C41.4321 42.2363 41.4789 42.4602 41.4789 42.7268ZM41.2943 42.7336C41.2943 42.4955 41.2556 42.2967 41.1781 42.1372C41.1006 41.9777 40.9821 41.8581 40.8226 41.7783C40.6631 41.6974 40.4609 41.657 40.2159 41.657H39.7545V43.8445H40.1681C40.5452 43.8445 40.8272 43.7522 41.014 43.5676C41.2009 43.3819 41.2943 43.1039 41.2943 42.7336ZM18.0295 47.7268C18.0295 48.0059 17.98 48.2401 17.8809 48.4292C17.7829 48.6183 17.637 48.7607 17.4434 48.8564C17.2508 48.9521 17.0121 49 16.7273 49H16.1292V46.5015H16.8059C17.0725 46.5015 17.2964 46.5482 17.4775 46.6416C17.6587 46.735 17.796 46.8729 17.8894 47.0552C17.9828 47.2363 18.0295 47.4602 18.0295 47.7268ZM17.845 47.7336C17.845 47.4955 17.8062 47.2967 17.7288 47.1372C17.6513 46.9777 17.5328 46.8581 17.3733 46.7783C17.2138 46.6974 17.0116 46.657 16.7666 46.657H16.3052V48.8445H16.7188C17.0959 48.8445 17.3778 48.7522 17.5647 48.5676C17.7515 48.3819 17.845 48.1039 17.845 47.7336ZM20.4908 49H19.1253V46.5015H20.4908V46.6604H19.3014V47.6072H20.4242V47.7661H19.3014V48.8411H20.4908V49ZM23.2529 46.5015L22.33 49H22.1557L21.2329 46.5015H21.4174L22.101 48.3506C22.1204 48.4041 22.1386 48.4565 22.1557 48.5078C22.1728 48.5579 22.1888 48.6064 22.2036 48.6531C22.2184 48.6998 22.2315 48.7448 22.2429 48.7881C22.2543 48.7448 22.2668 48.7009 22.2805 48.6565C22.2953 48.6109 22.3112 48.5631 22.3283 48.5129C22.3454 48.4617 22.3642 48.407 22.3847 48.3489L23.0666 46.5015H23.2529ZM25.4954 49H24.1299V46.5015H25.4954V46.6604H24.306V47.6072H25.4288V47.7661H24.306V48.8411H25.4954V49ZM26.5895 49V46.5015H26.7655V48.8394H27.955V49H26.5895ZM31.011 47.7473C31.011 47.9376 30.9876 48.1113 30.9409 48.2686C30.8942 48.4258 30.8241 48.5614 30.7307 48.6753C30.6373 48.7892 30.5205 48.8775 30.3804 48.9402C30.2414 49.0028 30.079 49.0342 29.8933 49.0342C29.7065 49.0342 29.543 49.0028 29.4028 48.9402C29.2627 48.8775 29.1459 48.7892 29.0525 48.6753C28.9602 48.5602 28.8907 48.4241 28.844 48.2668C28.7973 48.1085 28.7739 47.9342 28.7739 47.7439C28.7739 47.491 28.8167 47.2682 28.9021 47.0757C28.9887 46.8831 29.1157 46.7327 29.2832 46.6245C29.4518 46.5163 29.6597 46.4622 29.907 46.4622C30.144 46.4622 30.3445 46.514 30.5085 46.6177C30.6737 46.7202 30.7985 46.8678 30.8828 47.0603C30.9683 47.2517 31.011 47.4807 31.011 47.7473ZM28.9585 47.7456C28.9585 47.9689 28.9921 48.166 29.0593 48.3369C29.1265 48.5067 29.2297 48.6394 29.3687 48.7351C29.5076 48.8308 29.6831 48.8787 29.895 48.8787C30.1092 48.8787 30.2852 48.8314 30.4231 48.7368C30.561 48.6423 30.6629 48.5101 30.729 48.3403C30.7951 48.1706 30.8281 47.9729 30.8281 47.7473C30.8281 47.3907 30.7501 47.1139 30.594 46.9167C30.439 46.7196 30.21 46.6211 29.907 46.6211C29.6939 46.6211 29.5168 46.6684 29.3755 46.7629C29.2354 46.8575 29.1305 46.9891 29.061 47.1577C28.9927 47.3263 28.9585 47.5223 28.9585 47.7456ZM32.7237 46.5015C33.0211 46.5015 33.2438 46.5584 33.3919 46.6724C33.5401 46.7863 33.6141 46.9635 33.6141 47.2039C33.6141 47.3269 33.5942 47.4363 33.5543 47.532C33.5156 47.6265 33.4569 47.7063 33.3783 47.7712C33.2997 47.8362 33.2011 47.8852 33.0826 47.9182C32.9653 47.9513 32.828 47.9678 32.6708 47.9678H32.2862V49H32.1102V46.5015H32.7237ZM32.7049 46.657H32.2862V47.8123H32.6537C32.8154 47.8123 32.9544 47.794 33.0707 47.7576C33.1869 47.72 33.2763 47.6573 33.339 47.5696C33.4016 47.4819 33.433 47.3622 33.433 47.2107C33.433 47.0181 33.3737 46.878 33.2552 46.7903C33.1367 46.7014 32.9533 46.657 32.7049 46.657ZM35.7644 49L34.8466 46.6929H34.8381C34.8404 46.735 34.8421 46.7795 34.8432 46.8262C34.8455 46.8717 34.8472 46.9196 34.8483 46.9697C34.8495 47.0199 34.85 47.0723 34.85 47.127V49H34.6826V46.5015H34.9492L35.8344 48.7266H35.8447L36.7368 46.5015H36.9965V49H36.8239V47.1064C36.8239 47.062 36.8245 47.0164 36.8256 46.9697C36.8268 46.923 36.8279 46.8769 36.8291 46.8313C36.8313 46.7846 36.8336 46.7396 36.8359 46.6963H36.8256L35.9045 49H35.7644ZM39.5945 49H38.2291V46.5015H39.5945V46.6604H38.4051V47.6072H39.5279V47.7661H38.4051V48.8411H39.5945V49ZM42.507 49H42.3275L40.851 46.7903H40.8424C40.8447 46.8518 40.8464 46.9145 40.8476 46.9783C40.8498 47.0409 40.8515 47.1059 40.8527 47.1731C40.855 47.2392 40.8561 47.3075 40.8561 47.3782V49H40.6886V46.5015H40.8698L42.3412 48.7043H42.3498C42.3486 48.6542 42.3469 48.5961 42.3446 48.53C42.3435 48.4639 42.3418 48.3962 42.3395 48.3267C42.3384 48.2572 42.3378 48.1917 42.3378 48.1301V46.5015H42.507V49ZM44.3923 49H44.2146V46.6604H43.4045V46.5015H45.2024V46.6604H44.3923V49Z" fill="white"/>
</svg>
