<svg width="124" height="124" viewBox="0 0 124 124" fill="none" xmlns="http://www.w3.org/2000/svg">
<circle cx="62" cy="62" r="62" fill="#0F1221"/>
<mask id="mask0_112_124" style="mask-type:alpha" maskUnits="userSpaceOnUse" x="35" y="33" width="27" height="25">
<path d="M35.1333 35.0667C35.1333 33.9621 36.0287 33.0667 37.1333 33.0667H62V57.8666H37.1333C36.0287 57.8666 35.1333 56.9712 35.1333 55.8666V35.0667Z" fill="#0651E8"/>
</mask>
<g mask="url(#mask0_112_124)">
<path d="M35.1333 57.8666H55.8L62 33.0667H35.1333V57.8666Z" fill="#0651E8"/>
<path d="M52.7 37.2V40.3L42.3666 45.4666V46.5L52.7 50.6333V53.7333L37.2 47.5333V44.4333L52.7 37.2Z" fill="#0F1221"/>
</g>
<mask id="mask1_112_124" style="mask-type:alpha" maskUnits="userSpaceOnUse" x="62" y="18" width="27" height="26">
<path d="M88.8667 41.4C88.8667 42.5046 87.9713 43.4 86.8667 43.4H62V18.6L86.8667 18.6C87.9713 18.6 88.8667 19.4955 88.8667 20.6V41.4Z" fill="#0651E8"/>
</mask>
<g mask="url(#mask1_112_124)">
<path d="M88.8667 18.6L68.2 18.6L62 43.4H88.8667V18.6Z" fill="#61E0E7"/>
<path d="M71.3 39.2667V36.1667L81.6334 31.0001V29.9667L71.3 25.8334V22.7334L86.8 28.9334V32.0334L71.3 39.2667Z" fill="#0F1221"/>
</g>
<path d="M23.7489 77L21.3427 69.1592H21.2812C21.2903 69.346 21.304 69.6286 21.3222 70.0068C21.345 70.3805 21.3655 70.7793 21.3837 71.2031C21.4019 71.627 21.4111 72.0098 21.4111 72.3516V77H19.5175V67.0059H22.4023L24.7675 74.6484H24.8085L27.3173 67.0059H30.2021V77H28.2265V72.2695C28.2265 71.9551 28.231 71.5928 28.2402 71.1826C28.2538 70.7725 28.2698 70.3828 28.288 70.0137C28.3062 69.64 28.3199 69.3597 28.329 69.1729H28.2675L25.6903 77H23.7489ZM39.5427 77L38.8181 74.6211H35.1745L34.4499 77H32.1667L35.6941 66.9648H38.2849L41.8259 77H39.5427ZM38.3122 72.8438L37.5876 70.5195C37.542 70.3646 37.4805 70.1663 37.403 69.9248C37.3301 69.6787 37.2549 69.4303 37.1775 69.1797C37.1045 68.9245 37.0453 68.7035 36.9997 68.5166C36.9542 68.7035 36.8903 68.9359 36.8083 69.2139C36.7308 69.4873 36.6556 69.7471 36.5827 69.9932C36.5098 70.2393 36.4574 70.4147 36.4255 70.5195L35.7077 72.8438H38.3122ZM50.3052 77H42.8677V75.626L47.6597 68.7559H42.9976V67.0059H50.1753V68.373L45.3902 75.25H50.3052V77ZM59.1126 77H51.6751V75.626L56.4671 68.7559H51.805V67.0059H58.9827V68.373L54.1976 75.25H59.1126V77ZM60.5646 74.1016V72.3926H64.2355V74.1016H60.5646ZM70.8622 68.626C70.4566 68.626 70.0966 68.7057 69.7821 68.8652C69.4723 69.0202 69.2102 69.2458 68.996 69.542C68.7864 69.8382 68.6269 70.196 68.5175 70.6152C68.4081 71.0345 68.3534 71.5062 68.3534 72.0303C68.3534 72.7367 68.44 73.3405 68.6132 73.8418C68.7909 74.3385 69.0644 74.7191 69.4335 74.9834C69.8027 75.2432 70.2789 75.373 70.8622 75.373C71.2678 75.373 71.6734 75.3275 72.079 75.2363C72.4892 75.1452 72.9335 75.0153 73.412 74.8467V76.624C72.97 76.8063 72.5348 76.9362 72.1064 77.0137C71.678 77.0957 71.1972 77.1367 70.664 77.1367C69.634 77.1367 68.7864 76.9248 68.121 76.501C67.4602 76.0726 66.9703 75.4756 66.6513 74.71C66.3323 73.9398 66.1728 73.042 66.1728 72.0166C66.1728 71.2601 66.2753 70.5674 66.4804 69.9385C66.6855 69.3096 66.9862 68.765 67.3827 68.3047C67.7792 67.8444 68.2691 67.4889 68.8525 67.2383C69.4358 66.9876 70.1057 66.8623 70.8622 66.8623C71.359 66.8623 71.8557 66.9261 72.3525 67.0537C72.8538 67.1768 73.3323 67.3477 73.788 67.5664L73.1044 69.2891C72.7307 69.1113 72.3547 68.9564 71.9765 68.8242C71.5982 68.6921 71.2268 68.626 70.8622 68.626ZM85.3161 71.9893C85.3161 72.7594 85.2204 73.4613 85.029 74.0947C84.8376 74.7236 84.5459 75.266 84.154 75.7217C83.7667 76.1774 83.2745 76.5283 82.6775 76.7744C82.0805 77.016 81.3741 77.1367 80.5583 77.1367C79.7426 77.1367 79.0362 77.016 78.4392 76.7744C77.8422 76.5283 77.3477 76.1774 76.9558 75.7217C76.5684 75.266 76.279 74.7214 76.0876 74.0879C75.8962 73.4544 75.8005 72.7503 75.8005 71.9756C75.8005 70.9411 75.9691 70.041 76.3064 69.2754C76.6482 68.5052 77.1723 67.9082 77.8786 67.4844C78.585 67.0605 79.4828 66.8486 80.572 66.8486C81.6566 66.8486 82.5476 67.0605 83.2448 67.4844C83.9467 67.9082 84.4662 68.5052 84.8034 69.2754C85.1452 70.0456 85.3161 70.9502 85.3161 71.9893ZM78.0222 71.9893C78.0222 72.6865 78.1088 73.2881 78.282 73.7939C78.4597 74.2952 78.7354 74.6826 79.1091 74.9561C79.4828 75.2249 79.9659 75.3594 80.5583 75.3594C81.1599 75.3594 81.6475 75.2249 82.0212 74.9561C82.3949 74.6826 82.6661 74.2952 82.8347 73.7939C83.0079 73.2881 83.0945 72.6865 83.0945 71.9893C83.0945 70.9411 82.8985 70.1162 82.5066 69.5146C82.1146 68.9131 81.4698 68.6123 80.572 68.6123C79.975 68.6123 79.4874 68.749 79.1091 69.0225C78.7354 69.2913 78.4597 69.6787 78.282 70.1846C78.1088 70.6859 78.0222 71.2874 78.0222 71.9893ZM96.3794 71.9072C96.3794 73.0329 96.1629 73.974 95.73 74.7305C95.3016 75.4824 94.6795 76.0498 93.8638 76.4326C93.048 76.8109 92.0659 77 90.9175 77H88.0874V67.0059H91.2251C92.2733 67.0059 93.1825 67.1927 93.9527 67.5664C94.7228 67.9355 95.3198 68.4847 95.7437 69.2139C96.1675 69.9385 96.3794 70.8363 96.3794 71.9072ZM94.1782 71.9619C94.1782 71.2236 94.0689 70.6175 93.8501 70.1436C93.6359 69.665 93.3169 69.3118 92.8931 69.084C92.4738 68.8561 91.9543 68.7422 91.3345 68.7422H90.2066V75.25H91.1157C92.1502 75.25 92.9181 74.9743 93.4194 74.4229C93.9253 73.8714 94.1782 73.0511 94.1782 71.9619ZM104.907 77H99.1507V67.0059H104.907V68.7422H101.27V70.9365H104.654V72.6729H101.27V75.25H104.907V77Z" fill="white"/>
<path d="M34.2473 91.6666H33.7947V85.2418H37.3103V85.6505H34.2473V88.3883H37.1433V88.7926H34.2473V91.6666ZM41.2311 85.2418C41.7409 85.2418 42.1657 85.2975 42.5055 85.4088C42.8483 85.5201 43.1061 85.7032 43.279 85.9581C43.4518 86.213 43.5382 86.5573 43.5382 86.9908C43.5382 87.316 43.4782 87.5958 43.3581 87.8302C43.2409 88.0616 43.0783 88.2521 42.8703 88.4015C42.6623 88.5509 42.422 88.6652 42.1496 88.7443L43.9118 91.6666H43.3756L41.7189 88.8717H40.1237V91.6666H39.671V85.2418H41.2311ZM41.1872 85.6417H40.1237V88.4718H41.4025C41.9269 88.4718 42.3356 88.3458 42.6286 88.0939C42.9245 87.8419 43.0724 87.4801 43.0724 87.0084C43.0724 86.4899 42.9171 86.1324 42.6066 85.9362C42.296 85.7399 41.8229 85.6417 41.1872 85.6417ZM51.7789 88.4454C51.7789 88.9347 51.7188 89.3815 51.5987 89.7858C51.4786 90.1901 51.2984 90.5387 51.0582 90.8317C50.8179 91.1246 50.5176 91.3517 50.1573 91.5128C49.7999 91.674 49.3824 91.7545 48.9048 91.7545C48.4244 91.7545 48.004 91.674 47.6436 91.5128C47.2833 91.3517 46.983 91.1246 46.7427 90.8317C46.5054 90.5358 46.3267 90.1857 46.2066 89.7814C46.0865 89.3741 46.0264 88.9259 46.0264 88.4366C46.0264 87.7863 46.1363 87.2135 46.356 86.7184C46.5787 86.2233 46.9053 85.8365 47.336 85.5582C47.7696 85.2799 48.3042 85.1407 48.94 85.1407C49.5494 85.1407 50.065 85.274 50.4869 85.5406C50.9117 85.8043 51.2325 86.1837 51.4493 86.6788C51.669 87.171 51.7789 87.7599 51.7789 88.4454ZM46.501 88.441C46.501 89.0153 46.5875 89.5221 46.7603 89.9615C46.9332 90.3981 47.1983 90.7394 47.5557 90.9855C47.9131 91.2316 48.3643 91.3546 48.9092 91.3546C49.46 91.3546 49.9126 91.233 50.2671 90.9899C50.6216 90.7467 50.8838 90.4069 51.0538 89.9703C51.2237 89.5338 51.3086 89.0255 51.3086 88.4454C51.3086 87.5284 51.108 86.8165 50.7066 86.3097C50.3082 85.8029 49.7193 85.5494 48.94 85.5494C48.3921 85.5494 47.9366 85.671 47.5733 85.9142C47.2129 86.1573 46.9434 86.4957 46.7647 86.9293C46.5889 87.3629 46.501 87.8668 46.501 88.441ZM59.2812 91.6666H58.8198L55.0229 85.9845H55.0009C55.0068 86.1427 55.0112 86.3038 55.0141 86.4679C55.02 86.629 55.0244 86.796 55.0273 86.9689C55.0332 87.1388 55.0361 87.3146 55.0361 87.4962V91.6666H54.6054V85.2418H55.0712L58.8549 90.9064H58.8769C58.874 90.7775 58.8696 90.6281 58.8637 90.4581C58.8608 90.2882 58.8564 90.1139 58.8505 89.9352C58.8476 89.7565 58.8461 89.588 58.8461 89.4298V85.2418H59.2812V91.6666ZM64.1292 91.6666H63.6722V85.6505H61.5892V85.2418H66.2123V85.6505H64.1292V91.6666ZM75.7194 91.6666H72.2082V85.2418H75.7194V85.6505H72.6608V88.0851H75.548V88.4938H72.6608V91.2579H75.7194V91.6666ZM83.2085 91.6666H82.7471L78.9502 85.9845H78.9283C78.9341 86.1427 78.9385 86.3038 78.9415 86.4679C78.9473 86.629 78.9517 86.796 78.9546 86.9689C78.9605 87.1388 78.9634 87.3146 78.9634 87.4962V91.6666H78.5328V85.2418H78.9986L82.7823 90.9064H82.8042C82.8013 90.7775 82.7969 90.6281 82.7911 90.4581C82.7881 90.2882 82.7837 90.1139 82.7779 89.9352C82.7749 89.7565 82.7735 89.588 82.7735 89.4298V85.2418H83.2085V91.6666ZM91.2646 88.3927C91.2646 89.1105 91.1372 89.7125 90.8823 90.1989C90.6303 90.6852 90.2553 91.0514 89.7573 91.2975C89.2622 91.5436 88.6484 91.6666 87.916 91.6666H86.3779V85.2418H88.1181C88.8037 85.2418 89.3793 85.3619 89.8452 85.6022C90.311 85.8424 90.664 86.1969 90.9043 86.6656C91.1445 87.1315 91.2646 87.7072 91.2646 88.3927ZM90.79 88.4103C90.79 87.798 90.6904 87.2867 90.4912 86.8766C90.2919 86.4664 89.9873 86.1588 89.5771 85.9537C89.1669 85.7457 88.6469 85.6417 88.017 85.6417H86.8305V91.2667H87.894C88.8637 91.2667 89.5888 91.0294 90.0693 90.5548C90.5498 90.0773 90.79 89.3624 90.79 88.4103ZM30.9664 100.393C30.9664 101.11 30.8389 101.713 30.584 102.199C30.3321 102.685 29.9571 103.051 29.459 103.297C28.9639 103.544 28.3501 103.667 27.6177 103.667H26.0796V97.2418H27.8199C28.5054 97.2418 29.0811 97.3619 29.5469 97.6022C30.0127 97.8424 30.3658 98.1969 30.606 98.6656C30.8462 99.1315 30.9664 99.7072 30.9664 100.393ZM30.4917 100.41C30.4917 99.798 30.3921 99.2867 30.1929 98.8766C29.9937 98.4664 29.689 98.1588 29.2789 97.9537C28.8687 97.7457 28.3487 97.6417 27.7188 97.6417H26.5323V103.267H27.5958C28.5655 103.267 29.2906 103.029 29.771 102.555C30.2515 102.077 30.4917 101.362 30.4917 100.41ZM37.2954 103.667H33.7841V97.2418H37.2954V97.6505H34.2368V100.085H37.124V100.494H34.2368V103.258H37.2954V103.667ZM44.3978 97.2418L42.0248 103.667H41.5765L39.2035 97.2418H39.6781L41.4359 101.997C41.4857 102.134 41.5326 102.269 41.5765 102.401C41.6205 102.53 41.6615 102.654 41.6996 102.775C41.7376 102.895 41.7713 103.01 41.8006 103.122C41.8299 103.01 41.8622 102.898 41.8973 102.783C41.9354 102.666 41.9764 102.543 42.0204 102.414C42.0643 102.282 42.1126 102.142 42.1654 101.992L43.9188 97.2418H44.3978ZM50.1643 103.667H46.6531V97.2418H50.1643V97.6505H47.1057V100.085H49.9929V100.494H47.1057V103.258H50.1643V103.667ZM52.9777 103.667V97.2418H53.4303V103.254H56.4889V103.667H52.9777ZM64.3472 100.445C64.3472 100.935 64.2872 101.381 64.167 101.786C64.0469 102.19 63.8667 102.539 63.6265 102.832C63.3863 103.125 63.086 103.352 62.7256 103.513C62.3682 103.674 61.9507 103.755 61.4732 103.755C60.9927 103.755 60.5723 103.674 60.212 103.513C59.8516 103.352 59.5513 103.125 59.3111 102.832C59.0738 102.536 58.8951 102.186 58.775 101.781C58.6548 101.374 58.5948 100.926 58.5948 100.437C58.5948 99.7863 58.7046 99.2135 58.9244 98.7184C59.147 98.2233 59.4737 97.8365 59.9043 97.5582C60.3379 97.2799 60.8726 97.1407 61.5084 97.1407C62.1177 97.1407 62.6334 97.274 63.0552 97.5406C63.48 97.8043 63.8008 98.1837 64.0176 98.6788C64.2374 99.171 64.3472 99.7599 64.3472 100.445ZM59.0694 100.441C59.0694 101.015 59.1558 101.522 59.3287 101.962C59.5015 102.398 59.7667 102.739 60.1241 102.985C60.4815 103.232 60.9327 103.355 61.4776 103.355C62.0284 103.355 62.481 103.233 62.8355 102.99C63.19 102.747 63.4522 102.407 63.6221 101.97C63.792 101.534 63.877 101.026 63.877 100.445C63.877 99.5284 63.6763 98.8165 63.275 98.3097C62.8765 97.8029 62.2876 97.5494 61.5084 97.5494C60.9605 97.5494 60.5049 97.671 60.1417 97.9142C59.7813 98.1573 59.5118 98.4957 59.3331 98.9293C59.1573 99.3629 59.0694 99.8668 59.0694 100.441ZM68.7514 97.2418C69.5161 97.2418 70.0888 97.3883 70.4697 97.6813C70.8505 97.9742 71.041 98.4298 71.041 99.048C71.041 99.3644 70.9897 99.6456 70.8872 99.8917C70.7875 100.135 70.6367 100.34 70.4345 100.507C70.2324 100.674 69.979 100.8 69.6743 100.885C69.3725 100.97 69.0195 101.012 68.6152 101.012H67.6264V103.667H67.1738V97.2418H68.7514ZM68.7031 97.6417H67.6264V100.612H68.5712C68.9873 100.612 69.3447 100.566 69.6435 100.472C69.9423 100.375 70.1723 100.214 70.3334 99.9884C70.4946 99.7628 70.5751 99.4552 70.5751 99.0656C70.5751 98.5704 70.4228 98.2101 70.1181 97.9845C69.8134 97.756 69.3417 97.6417 68.7031 97.6417ZM76.5702 103.667L74.2103 97.734H74.1883C74.1942 97.8424 74.1986 97.9567 74.2015 98.0768C74.2074 98.194 74.2118 98.317 74.2147 98.4459C74.2176 98.5748 74.2191 98.7096 74.2191 98.8502V103.667H73.7884V97.2418H74.474L76.7503 102.964H76.7767L79.0707 97.2418H79.7386V103.667H79.2948V98.7975C79.2948 98.6832 79.2962 98.566 79.2992 98.4459C79.3021 98.3258 79.305 98.2072 79.308 98.09C79.3138 97.9698 79.3197 97.8541 79.3255 97.7428H79.2992L76.9305 103.667H76.5702ZM86.4192 103.667H82.908V97.2418H86.4192V97.6505H83.3606V100.085H86.2478V100.494H83.3606V103.258H86.4192V103.667ZM93.9084 103.667H93.4469L89.6501 97.9845H89.6281C89.6339 98.1427 89.6383 98.3038 89.6413 98.4679C89.6471 98.629 89.6515 98.796 89.6544 98.9689C89.6603 99.1388 89.6632 99.3146 89.6632 99.4962V103.667H89.2326V97.2418H89.6984L93.4821 102.906H93.5041C93.5011 102.777 93.4967 102.628 93.4909 102.458C93.4879 102.288 93.4836 102.114 93.4777 101.935C93.4748 101.756 93.4733 101.588 93.4733 101.43V97.2418H93.9084V103.667ZM98.7564 103.667H98.2994V97.6505H96.2164V97.2418H100.839V97.6505H98.7564V103.667Z" fill="white"/>
</svg>
